M48
;DRILL file {KiCad 4.0.7} date 11/06/18 11:26:02
;FORMAT={-:-/ absolute / inch / decimal}
FMAT,2
INCH,TZ
T1C0.016
T2C0.033
T3C0.039
T4C0.059
T5C0.067
T6C0.102
%
G90
G05
M72
T1
X1.2Y-2.125
X1.275Y-2.3
X1.325Y-3.625
X1.475Y-4.15
X1.95Y-3.425
X2.Y-3.15
X2.375Y-2.775
X2.4Y-3.7
X2.4Y-3.75
X2.425Y-3.475
X2.45Y-2.425
X2.45Y-4.325
X2.475Y-2.475
X2.5Y-2.525
X2.525Y-3.475
X2.55Y-2.575
X2.6Y-1.5
X2.6Y-1.575
X2.6Y-2.825
X2.6Y-2.875
X2.6Y-4.325
X2.65Y-1.7
X2.65Y-2.4
X2.65Y-2.7
X2.65Y-3.3
X2.65Y-3.6
X2.65Y-4.2
X2.65Y-4.5
X2.7Y-3.75
X2.7169Y-1.325
X2.7169Y-1.375
X2.75Y-2.775
X2.75Y-2.85
X2.75Y-2.9
X2.75Y-2.95
X2.75Y-3.075
X2.75Y-3.175
X2.75Y-3.65
X2.75Y-3.7
X2.75Y-3.775
X2.775Y-2.825
X2.775Y-3.125
X2.95Y-3.225
X3.0831Y-1.425
X3.0831Y-1.475
X3.0831Y-1.525
X3.0831Y-1.575
X3.0831Y-2.425
X3.0831Y-2.475
X3.0831Y-2.525
X3.0831Y-2.575
X3.0831Y-3.275
X3.0831Y-3.325
X3.0831Y-3.375
X3.0831Y-3.425
X3.0831Y-3.475
X3.0831Y-4.225
X3.0831Y-4.275
X3.0831Y-4.325
X3.0831Y-4.375
X3.1Y-3.85
X3.2Y-2.75
X3.2Y-2.85
X3.25Y-2.825
X3.475Y-2.475
X3.5Y-3.175
X3.525Y-2.85
X3.6Y-2.425
X3.6Y-2.575
X3.6Y-3.65
X3.65Y-2.95
X3.65Y-3.65
X3.675Y-4.7
X3.7Y-2.9
X3.7Y-3.65
X3.7Y-3.85
X3.725Y-3.075
X3.75Y-3.125
X3.75Y-3.8
X3.75Y-4.75
X3.8Y-1.35
X3.8Y-4.7
X3.825Y-2.85
X3.85Y-2.05
X3.85Y-2.2
X3.85Y-2.9
X3.85Y-3.1
X3.85Y-3.65
X3.85Y-4.
X3.85Y-4.75
X3.9169Y-2.575
X3.925Y-2.425
X3.925Y-2.475
X4.2831Y-1.425
X4.2831Y-1.475
X4.2831Y-1.525
X4.2831Y-1.575
X4.2831Y-2.475
X4.2831Y-2.525
X4.2831Y-2.575
X4.2831Y-3.375
X4.2831Y-3.475
X4.2831Y-4.275
X4.2831Y-4.325
X4.2831Y-4.375
X4.35Y-3.425
X4.45Y-2.3
X4.45Y-3.25
X5.05Y-1.7
X5.05Y-1.8
X5.05Y-1.9
X5.25Y-4.1
X5.325Y-3.425
X6.25Y-2.65
X6.25Y-2.7
X6.45Y-4.55
T2
X1.225Y-2.475
X1.225Y-2.575
X1.225Y-2.675
X1.225Y-2.775
X1.225Y-2.875
X1.225Y-2.975
X1.225Y-3.075
X1.225Y-3.175
X1.225Y-3.275
X1.225Y-3.375
X1.225Y-3.475
X1.225Y-3.575
X1.225Y-3.675
X1.225Y-3.775
X1.225Y-3.875
X1.225Y-3.975
X1.225Y-4.075
X1.325Y-2.425
X1.325Y-2.525
X1.325Y-2.625
X1.325Y-2.725
X1.325Y-2.825
X1.325Y-2.925
X1.325Y-3.025
X1.325Y-3.125
X1.325Y-3.225
X1.325Y-3.325
X1.325Y-3.425
X1.325Y-3.525
X1.325Y-3.625
X1.325Y-3.725
X1.325Y-3.825
X1.325Y-3.925
X1.325Y-4.025
X1.425Y-2.475
X1.425Y-2.575
X1.425Y-2.675
X1.425Y-2.775
X1.425Y-2.875
X1.425Y-2.975
X1.425Y-3.075
X1.425Y-3.175
X1.425Y-3.275
X1.425Y-3.375
X1.425Y-3.475
X1.425Y-3.575
X1.425Y-3.675
X1.425Y-3.775
X1.425Y-3.875
X1.425Y-3.975
X1.425Y-4.075
X1.525Y-2.425
X1.525Y-2.525
X1.525Y-2.625
X1.525Y-2.725
X1.525Y-2.825
X1.525Y-2.925
X1.525Y-3.025
X1.525Y-3.125
X1.525Y-3.225
X1.525Y-3.325
X1.525Y-3.425
X1.525Y-3.525
X1.525Y-3.625
X1.525Y-3.725
X1.525Y-3.825
X1.525Y-3.925
X1.525Y-4.025
T3
X5.4Y-1.7
X5.4Y-1.8
X5.4Y-1.9
X5.4Y-2.
X5.4Y-2.1
X5.4Y-2.2
X5.4Y-3.3
X5.4Y-3.4
X5.4Y-3.5
X5.4Y-3.6
X5.4Y-3.7
X5.4Y-3.8
X5.5Y-1.7
X5.5Y-1.8
X5.5Y-1.9
X5.5Y-2.
X5.5Y-2.1
X5.5Y-2.2
X5.5Y-3.3
X5.5Y-3.4
X5.5Y-3.5
X5.5Y-3.6
X5.5Y-3.7
X5.5Y-3.8
X6.6Y-2.5
X6.6Y-2.6
X6.6Y-2.7
X6.6Y-2.8
X6.6Y-2.9
X6.6Y-3.
X6.6Y-4.1
X6.6Y-4.2
X6.6Y-4.3
X6.6Y-4.4
X6.6Y-4.5
X6.6Y-4.6
X6.7Y-2.5
X6.7Y-2.6
X6.7Y-2.7
X6.7Y-2.8
X6.7Y-2.9
X6.7Y-3.
X6.7Y-4.1
X6.7Y-4.2
X6.7Y-4.3
X6.7Y-4.4
X6.7Y-4.5
X6.7Y-4.6
T4
X1.3Y-1.7
T5
X1.2Y-1.6
X1.2Y-1.8
X1.4Y-1.6
X1.4Y-1.8
T6
X6.2Y-1.5
X6.3181Y-1.315
X6.4362Y-1.5
T0
M30
