G04 #@! TF.FileFunction,Copper,L2,Bot,Signal*
%FSLAX46Y46*%
G04 Gerber Fmt 4.6, Leading zero omitted, Abs format (unit mm)*
G04 Created by KiCad (PCBNEW 4.0.7) date 11/06/18 11:25:05*
%MOMM*%
%LPD*%
G01*
G04 APERTURE LIST*
%ADD10C,0.100000*%
%ADD11C,3.000000*%
%ADD12C,1.400000*%
%ADD13C,2.200000*%
%ADD14C,2.000000*%
%ADD15R,1.700000X1.700000*%
%ADD16O,1.700000X1.700000*%
%ADD17C,4.000000*%
%ADD18C,0.600000*%
%ADD19C,0.250000*%
%ADD20C,0.254000*%
G04 APERTURE END LIST*
D10*
D11*
X33655000Y-111515000D03*
D12*
X33655000Y-61595000D03*
X38735000Y-61595000D03*
X36195000Y-62865000D03*
X38735000Y-64135000D03*
X36195000Y-65405000D03*
X38735000Y-66675000D03*
X36195000Y-67945000D03*
X38735000Y-69215000D03*
X36195000Y-70485000D03*
X38735000Y-71755000D03*
X36195000Y-73025000D03*
X38735000Y-74295000D03*
X36195000Y-75565000D03*
X38735000Y-76835000D03*
X36195000Y-78105000D03*
X38735000Y-79375000D03*
X36195000Y-80645000D03*
X38735000Y-81915000D03*
X36195000Y-83185000D03*
X38735000Y-84455000D03*
X36195000Y-85725000D03*
X38735000Y-86995000D03*
X36195000Y-88265000D03*
X38735000Y-89535000D03*
X36195000Y-90805000D03*
X38735000Y-92075000D03*
X36195000Y-93345000D03*
X38735000Y-94615000D03*
X36195000Y-95885000D03*
X38735000Y-97155000D03*
X36195000Y-98425000D03*
X38735000Y-99695000D03*
X36195000Y-100965000D03*
X38735000Y-102235000D03*
X36195000Y-103505000D03*
X31115000Y-62865000D03*
X33655000Y-64135000D03*
X31115000Y-65405000D03*
X33655000Y-66675000D03*
X31115000Y-67945000D03*
X33655000Y-69215000D03*
X31115000Y-70485000D03*
X33655000Y-71755000D03*
X31115000Y-73025000D03*
X33655000Y-74295000D03*
X31115000Y-75565000D03*
X33655000Y-76835000D03*
X31115000Y-78105000D03*
X33655000Y-79375000D03*
X31115000Y-80645000D03*
X33655000Y-81915000D03*
X31115000Y-83185000D03*
X33655000Y-84455000D03*
X31115000Y-85725000D03*
X33655000Y-86995000D03*
X31115000Y-88265000D03*
X33655000Y-89535000D03*
X31115000Y-90805000D03*
X33655000Y-92075000D03*
X31115000Y-93345000D03*
X33655000Y-94615000D03*
X31115000Y-95885000D03*
X33655000Y-97155000D03*
X31115000Y-98425000D03*
X33655000Y-99695000D03*
X31115000Y-100965000D03*
X33655000Y-102235000D03*
X31115000Y-103505000D03*
D11*
X33655000Y-53585000D03*
D13*
X30480000Y-45720000D03*
X30480000Y-40640000D03*
X35560000Y-40640000D03*
X35560000Y-45720000D03*
D14*
X33020000Y-43180000D03*
D15*
X167640000Y-104140000D03*
D16*
X170180000Y-104140000D03*
X167640000Y-106680000D03*
X170180000Y-106680000D03*
X167640000Y-109220000D03*
X170180000Y-109220000D03*
X167640000Y-111760000D03*
X170180000Y-111760000D03*
X167640000Y-114300000D03*
X170180000Y-114300000D03*
X167640000Y-116840000D03*
X170180000Y-116840000D03*
D15*
X137160000Y-83820000D03*
D16*
X139700000Y-83820000D03*
X137160000Y-86360000D03*
X139700000Y-86360000D03*
X137160000Y-88900000D03*
X139700000Y-88900000D03*
X137160000Y-91440000D03*
X139700000Y-91440000D03*
X137160000Y-93980000D03*
X139700000Y-93980000D03*
X137160000Y-96520000D03*
X139700000Y-96520000D03*
D15*
X167640000Y-63500000D03*
D16*
X170180000Y-63500000D03*
X167640000Y-66040000D03*
X170180000Y-66040000D03*
X167640000Y-68580000D03*
X170180000Y-68580000D03*
X167640000Y-71120000D03*
X170180000Y-71120000D03*
X167640000Y-73660000D03*
X170180000Y-73660000D03*
X167640000Y-76200000D03*
X170180000Y-76200000D03*
D15*
X137160000Y-43180000D03*
D16*
X139700000Y-43180000D03*
X137160000Y-45720000D03*
X139700000Y-45720000D03*
X137160000Y-48260000D03*
X139700000Y-48260000D03*
X137160000Y-50800000D03*
X139700000Y-50800000D03*
X137160000Y-53340000D03*
X139700000Y-53340000D03*
X137160000Y-55880000D03*
X139700000Y-55880000D03*
D17*
X157480000Y-38100000D03*
X163480000Y-38100000D03*
X160480000Y-33400000D03*
D18*
X78310000Y-83185000D03*
X74930000Y-81915000D03*
X69010000Y-33655000D03*
X93980000Y-97790000D03*
X78740000Y-97790000D03*
X33655000Y-92075000D03*
X30480000Y-53975000D03*
X69010000Y-34925000D03*
X96520000Y-34290000D03*
X97790000Y-52070000D03*
X97790000Y-55880000D03*
X97790000Y-73660000D03*
X97790000Y-78740000D03*
X97790000Y-92710000D03*
X97790000Y-101600000D03*
X67310000Y-43180000D03*
X67310000Y-60960000D03*
X67310000Y-68580000D03*
X67310000Y-83820000D03*
X67310000Y-91440000D03*
X67310000Y-106680000D03*
X67310000Y-114300000D03*
X92710000Y-74930000D03*
X69850000Y-74930000D03*
X95250000Y-79375000D03*
X70485000Y-79375000D03*
X62230000Y-61595000D03*
X62865000Y-62865000D03*
X97155000Y-72390000D03*
X89535000Y-72390000D03*
X88900000Y-80645000D03*
X69850000Y-80645000D03*
X49530000Y-86995000D03*
X99490000Y-65405000D03*
X66040000Y-73025000D03*
X69850000Y-72390000D03*
X81280000Y-72390000D03*
X91440000Y-65405000D03*
X91440000Y-92710000D03*
X69850000Y-92710000D03*
X95250000Y-96520000D03*
X69850000Y-95885000D03*
X93345000Y-119380000D03*
X97790000Y-120650000D03*
X66040000Y-38100000D03*
X32385000Y-58420000D03*
X66040000Y-40005000D03*
X93980000Y-73660000D03*
X69850000Y-73660000D03*
X94615000Y-78105000D03*
X69850000Y-78105000D03*
X63500000Y-64135000D03*
X64770000Y-65405000D03*
X66040000Y-71755000D03*
X70485000Y-71755000D03*
X82550000Y-71755000D03*
X91440000Y-61595000D03*
X99695000Y-61595000D03*
X50800000Y-80010000D03*
X60325000Y-70485000D03*
X69850000Y-70485000D03*
X81280000Y-69850000D03*
X88265000Y-62865000D03*
X99695000Y-62865000D03*
X64135000Y-88265000D03*
X61595000Y-88265000D03*
X92710000Y-92710000D03*
X69850000Y-93980000D03*
X60960000Y-93980000D03*
X93980000Y-92710000D03*
X68580000Y-95250000D03*
X60960000Y-95250000D03*
X66040000Y-109855000D03*
X62230000Y-109855000D03*
X95250000Y-120650000D03*
X37465000Y-105410000D03*
X96520000Y-119380000D03*
X78310000Y-107315000D03*
X78310000Y-108585000D03*
X78310000Y-109855000D03*
X78310000Y-111125000D03*
X163830000Y-115570000D03*
X133350000Y-104140000D03*
X108790000Y-108585000D03*
X108790000Y-109855000D03*
X108790000Y-111125000D03*
X78310000Y-84455000D03*
X78310000Y-85725000D03*
X78310000Y-86995000D03*
X78310000Y-88265000D03*
X113030000Y-82550000D03*
X108790000Y-85725000D03*
X135255000Y-86995000D03*
X110490000Y-86995000D03*
X108790000Y-88265000D03*
X78310000Y-61595000D03*
X78310000Y-62865000D03*
X158750000Y-67310000D03*
X78310000Y-64135000D03*
X158750000Y-68580000D03*
X78310000Y-65405000D03*
X113030000Y-58420000D03*
X108790000Y-62865000D03*
X108790000Y-64135000D03*
X108790000Y-65405000D03*
X78310000Y-36195000D03*
X128270000Y-43180000D03*
X78310000Y-37465000D03*
X128270000Y-45720000D03*
X78310000Y-38735000D03*
X128270000Y-48260000D03*
X78310000Y-40005000D03*
X108790000Y-36195000D03*
X108790000Y-37465000D03*
X108790000Y-38735000D03*
X108790000Y-40005000D03*
D19*
X76200000Y-83185000D02*
X74930000Y-81915000D01*
X76200000Y-83185000D02*
X78310000Y-83185000D01*
X69010000Y-33655000D02*
X69215000Y-33655000D01*
X78740000Y-97790000D02*
X93980000Y-97790000D01*
X33655000Y-86995000D02*
X32385000Y-88265000D01*
X32385000Y-90170000D02*
X33655000Y-91440000D01*
X32385000Y-88265000D02*
X32385000Y-90170000D01*
X33655000Y-91440000D02*
X33655000Y-92075000D01*
X33655000Y-92075000D02*
X33655000Y-90805000D01*
X33655000Y-90805000D02*
X36195000Y-90805000D01*
X36195000Y-78105000D02*
X34925000Y-78105000D01*
X34925000Y-78105000D02*
X33655000Y-79375000D01*
X38735000Y-74295000D02*
X38735000Y-74930000D01*
X38735000Y-74930000D02*
X36195000Y-77470000D01*
X36195000Y-77470000D02*
X36195000Y-78105000D01*
X33655000Y-99695000D02*
X34925000Y-99695000D01*
X34925000Y-99695000D02*
X36195000Y-98425000D01*
X30480000Y-45720000D02*
X35560000Y-45720000D01*
X40005000Y-27940000D02*
X68580000Y-27940000D01*
X38735000Y-29210000D02*
X40005000Y-27940000D01*
X38735000Y-31115000D02*
X38735000Y-29210000D01*
X35560000Y-34290000D02*
X38735000Y-31115000D01*
X35560000Y-40640000D02*
X35560000Y-34290000D01*
X30480000Y-45720000D02*
X30480000Y-53975000D01*
X30480000Y-45720000D02*
X30480000Y-40640000D01*
X35560000Y-40640000D02*
X30480000Y-40640000D01*
X67310000Y-35560000D02*
X68375000Y-35560000D01*
X68375000Y-35560000D02*
X69010000Y-34925000D01*
X67310000Y-35560000D02*
X67310000Y-29210000D01*
X67310000Y-29210000D02*
X68580000Y-27940000D01*
X96520000Y-29210000D02*
X96520000Y-34290000D01*
X95250000Y-27940000D02*
X96520000Y-29210000D01*
X68580000Y-27940000D02*
X95250000Y-27940000D01*
X95250000Y-53340000D02*
X96520000Y-53340000D01*
X96520000Y-53340000D02*
X97790000Y-52070000D01*
X67310000Y-54610000D02*
X68580000Y-53340000D01*
X95250000Y-53340000D02*
X97790000Y-55880000D01*
X68580000Y-53340000D02*
X95250000Y-53340000D01*
X95250000Y-76200000D02*
X97790000Y-73660000D01*
X67310000Y-77470000D02*
X68580000Y-76200000D01*
X96520000Y-77470000D02*
X97790000Y-78740000D01*
X95250000Y-76200000D02*
X96520000Y-77470000D01*
X68580000Y-76200000D02*
X95250000Y-76200000D01*
X95250000Y-99060000D02*
X97790000Y-96520000D01*
X97790000Y-96520000D02*
X97790000Y-92710000D01*
X67310000Y-100330000D02*
X68580000Y-99060000D01*
X95250000Y-99060000D02*
X97790000Y-101600000D01*
X68580000Y-99060000D02*
X95250000Y-99060000D01*
X67310000Y-43180000D02*
X67310000Y-38100000D01*
X67310000Y-38100000D02*
X67310000Y-35560000D01*
X67310000Y-60960000D02*
X67310000Y-54610000D01*
X67310000Y-54610000D02*
X67310000Y-43180000D01*
X67310000Y-68580000D02*
X67310000Y-60960000D01*
X67310000Y-83820000D02*
X67310000Y-77470000D01*
X67310000Y-77470000D02*
X67310000Y-68580000D01*
X67310000Y-91440000D02*
X67310000Y-83820000D01*
X67310000Y-106680000D02*
X67310000Y-100330000D01*
X67310000Y-100330000D02*
X67310000Y-91440000D01*
X67310000Y-114300000D02*
X67310000Y-106680000D01*
X69850000Y-74930000D02*
X92710000Y-74930000D01*
X70485000Y-79375000D02*
X95250000Y-79375000D01*
X36195000Y-80645000D02*
X51435000Y-80645000D01*
X60960000Y-62865000D02*
X62230000Y-61595000D01*
X60960000Y-71120000D02*
X60960000Y-62865000D01*
X51435000Y-80645000D02*
X60960000Y-71120000D01*
X38735000Y-81915000D02*
X51435000Y-81915000D01*
X62230000Y-63500000D02*
X62865000Y-62865000D01*
X62230000Y-71120000D02*
X62230000Y-63500000D01*
X51435000Y-81915000D02*
X62230000Y-71120000D01*
X38735000Y-86995000D02*
X49530000Y-86995000D01*
X89535000Y-72390000D02*
X97155000Y-72390000D01*
X69850000Y-80645000D02*
X88900000Y-80645000D01*
X36195000Y-88900000D02*
X38100000Y-90805000D01*
X38100000Y-90805000D02*
X48260000Y-90805000D01*
X48260000Y-90805000D02*
X66040000Y-73025000D01*
X69850000Y-72390000D02*
X81280000Y-72390000D01*
X91440000Y-65405000D02*
X99695000Y-65405000D01*
X99695000Y-65405000D02*
X99490000Y-65405000D01*
X36195000Y-88265000D02*
X36195000Y-88900000D01*
X69850000Y-92710000D02*
X91440000Y-92710000D01*
X70485000Y-96520000D02*
X95250000Y-96520000D01*
X69850000Y-95885000D02*
X70485000Y-96520000D01*
X36195000Y-100965000D02*
X56515000Y-100965000D01*
X93345000Y-119380000D02*
X93345000Y-119380000D01*
X60325000Y-119380000D02*
X93345000Y-119380000D01*
X59055000Y-118110000D02*
X60325000Y-119380000D01*
X59055000Y-103505000D02*
X59055000Y-118110000D01*
X56515000Y-100965000D02*
X59055000Y-103505000D01*
X36195000Y-103505000D02*
X36195000Y-106680000D01*
X97790000Y-122555000D02*
X97790000Y-120650000D01*
X96520000Y-123825000D02*
X97790000Y-122555000D01*
X57150000Y-123825000D02*
X96520000Y-123825000D01*
X53975000Y-120650000D02*
X57150000Y-123825000D01*
X53975000Y-107950000D02*
X53975000Y-120650000D01*
X53340000Y-107315000D02*
X53975000Y-107950000D01*
X36830000Y-107315000D02*
X53340000Y-107315000D01*
X36195000Y-106680000D02*
X36830000Y-107315000D01*
X29845000Y-71755000D02*
X31115000Y-73025000D01*
X29845000Y-59055000D02*
X29845000Y-71755000D01*
X31750000Y-57150000D02*
X29845000Y-59055000D01*
X46990000Y-57150000D02*
X31750000Y-57150000D01*
X66040000Y-38100000D02*
X46990000Y-57150000D01*
X47625000Y-58420000D02*
X32385000Y-58420000D01*
X66040000Y-40005000D02*
X47625000Y-58420000D01*
X69850000Y-73660000D02*
X93980000Y-73660000D01*
X69850000Y-78105000D02*
X94615000Y-78105000D01*
X33655000Y-81915000D02*
X37465000Y-81915000D01*
X63500000Y-71755000D02*
X63500000Y-64135000D01*
X52070000Y-83185000D02*
X63500000Y-71755000D01*
X37465000Y-83185000D02*
X52070000Y-83185000D01*
X37465000Y-81915000D02*
X37465000Y-83185000D01*
X31115000Y-83185000D02*
X34925000Y-83185000D01*
X64770000Y-71755000D02*
X64770000Y-65405000D01*
X50800000Y-85725000D02*
X64770000Y-71755000D01*
X37465000Y-85725000D02*
X50800000Y-85725000D01*
X37465000Y-84455000D02*
X37465000Y-85725000D01*
X34925000Y-84455000D02*
X37465000Y-84455000D01*
X34925000Y-83185000D02*
X34925000Y-84455000D01*
X33655000Y-84455000D02*
X33655000Y-85090000D01*
X33655000Y-85090000D02*
X35560000Y-86995000D01*
X35560000Y-86995000D02*
X36830000Y-86995000D01*
X36830000Y-86995000D02*
X38100000Y-88265000D01*
X38100000Y-88265000D02*
X49530000Y-88265000D01*
X49530000Y-88265000D02*
X66040000Y-71755000D01*
X70485000Y-71755000D02*
X82550000Y-71755000D01*
X91440000Y-61595000D02*
X99695000Y-61595000D01*
X50800000Y-80010000D02*
X60325000Y-70485000D01*
X69850000Y-70485000D02*
X70485000Y-69850000D01*
X70485000Y-69850000D02*
X81280000Y-69850000D01*
X88265000Y-62865000D02*
X99695000Y-62865000D01*
X61595000Y-88265000D02*
X64135000Y-88265000D01*
X31115000Y-93345000D02*
X34290000Y-93345000D01*
X91440000Y-93980000D02*
X92710000Y-92710000D01*
X69850000Y-93980000D02*
X91440000Y-93980000D01*
X60325000Y-93345000D02*
X60960000Y-93980000D01*
X37465000Y-93345000D02*
X60325000Y-93345000D01*
X37465000Y-92075000D02*
X37465000Y-93345000D01*
X35560000Y-92075000D02*
X37465000Y-92075000D01*
X34925000Y-92710000D02*
X35560000Y-92075000D01*
X34290000Y-93345000D02*
X34925000Y-92710000D01*
X33655000Y-94615000D02*
X36830000Y-94615000D01*
X91440000Y-95250000D02*
X93980000Y-92710000D01*
X68580000Y-95250000D02*
X91440000Y-95250000D01*
X60325000Y-95885000D02*
X60960000Y-95250000D01*
X38100000Y-95885000D02*
X60325000Y-95885000D01*
X36830000Y-94615000D02*
X38100000Y-95885000D01*
X62230000Y-109855000D02*
X66040000Y-109855000D01*
X31115000Y-100965000D02*
X34290000Y-100965000D01*
X34290000Y-100965000D02*
X35560000Y-102235000D01*
X35560000Y-102235000D02*
X37465000Y-102235000D01*
X37465000Y-102235000D02*
X37465000Y-103505000D01*
X37465000Y-103505000D02*
X55880000Y-103505000D01*
X55880000Y-103505000D02*
X57150000Y-104775000D01*
X57150000Y-104775000D02*
X57150000Y-118745000D01*
X57150000Y-118745000D02*
X59055000Y-120650000D01*
X59055000Y-120650000D02*
X95250000Y-120650000D01*
X53975000Y-105410000D02*
X37465000Y-105410000D01*
X55245000Y-106680000D02*
X53975000Y-105410000D01*
X55245000Y-119380000D02*
X55245000Y-106680000D01*
X58420000Y-122555000D02*
X55245000Y-119380000D01*
X95250000Y-122555000D02*
X58420000Y-122555000D01*
X96520000Y-121285000D02*
X95250000Y-122555000D01*
X96520000Y-120650000D02*
X96520000Y-121285000D01*
X96520000Y-119380000D02*
X96520000Y-120650000D01*
X167640000Y-104140000D02*
X166370000Y-104140000D01*
X165100000Y-105410000D02*
X166370000Y-104140000D01*
X80215000Y-105410000D02*
X165100000Y-105410000D01*
X80215000Y-105410000D02*
X78310000Y-107315000D01*
X167640000Y-106680000D02*
X80215000Y-106680000D01*
X80215000Y-106680000D02*
X78310000Y-108585000D01*
X167640000Y-109220000D02*
X78945000Y-109220000D01*
X78945000Y-109220000D02*
X78310000Y-109855000D01*
X82755000Y-115570000D02*
X163830000Y-115570000D01*
X82755000Y-115570000D02*
X78310000Y-111125000D01*
X170180000Y-102870000D02*
X170180000Y-104140000D01*
X168910000Y-101600000D02*
X170180000Y-102870000D01*
X135890000Y-101600000D02*
X168910000Y-101600000D01*
X133350000Y-104140000D02*
X135890000Y-101600000D01*
X170180000Y-106680000D02*
X168910000Y-107950000D01*
X109425000Y-107950000D02*
X168910000Y-107950000D01*
X109425000Y-107950000D02*
X108790000Y-108585000D01*
X170180000Y-109220000D02*
X168910000Y-110490000D01*
X109425000Y-110490000D02*
X168910000Y-110490000D01*
X109425000Y-110490000D02*
X108790000Y-109855000D01*
X170180000Y-111760000D02*
X168910000Y-113030000D01*
X110695000Y-113030000D02*
X168910000Y-113030000D01*
X110695000Y-113030000D02*
X108790000Y-111125000D01*
X137160000Y-83820000D02*
X78945000Y-83820000D01*
X78945000Y-83820000D02*
X78310000Y-84455000D01*
X137160000Y-86360000D02*
X78945000Y-86360000D01*
X78945000Y-86360000D02*
X78310000Y-85725000D01*
X137160000Y-88900000D02*
X135890000Y-87630000D01*
X78945000Y-87630000D02*
X135890000Y-87630000D01*
X78945000Y-87630000D02*
X78310000Y-86995000D01*
X137160000Y-91440000D02*
X81485000Y-91440000D01*
X81485000Y-91440000D02*
X78310000Y-88265000D01*
X139700000Y-82550000D02*
X139700000Y-83820000D01*
X138430000Y-81280000D02*
X139700000Y-82550000D01*
X135890000Y-81280000D02*
X138430000Y-81280000D01*
X134620000Y-82550000D02*
X135890000Y-81280000D01*
X113030000Y-82550000D02*
X134620000Y-82550000D01*
X139700000Y-86360000D02*
X138430000Y-85090000D01*
X109425000Y-85090000D02*
X138430000Y-85090000D01*
X109425000Y-85090000D02*
X108790000Y-85725000D01*
X110490000Y-86995000D02*
X135255000Y-86995000D01*
X139700000Y-91440000D02*
X138430000Y-90170000D01*
X110695000Y-90170000D02*
X138430000Y-90170000D01*
X110695000Y-90170000D02*
X108790000Y-88265000D01*
X167640000Y-63500000D02*
X165100000Y-60960000D01*
X78945000Y-60960000D02*
X165100000Y-60960000D01*
X78945000Y-60960000D02*
X78310000Y-61595000D01*
X82755000Y-67310000D02*
X158750000Y-67310000D01*
X82755000Y-67310000D02*
X78310000Y-62865000D01*
X158545000Y-68375000D02*
X158750000Y-68580000D01*
X82550000Y-68375000D02*
X158545000Y-68375000D01*
X82550000Y-68375000D02*
X78310000Y-64135000D01*
X167435000Y-70915000D02*
X83820000Y-70915000D01*
X83820000Y-70915000D02*
X78310000Y-65405000D01*
X167435000Y-70915000D02*
X167640000Y-71120000D01*
X170180000Y-59690000D02*
X170180000Y-63500000D01*
X168910000Y-58420000D02*
X170180000Y-59690000D01*
X113030000Y-58420000D02*
X168910000Y-58420000D01*
X170180000Y-66040000D02*
X168910000Y-64770000D01*
X165100000Y-64770000D02*
X168910000Y-64770000D01*
X162765000Y-62435000D02*
X165100000Y-64770000D01*
X109220000Y-62435000D02*
X162765000Y-62435000D01*
X109220000Y-62435000D02*
X108790000Y-62865000D01*
X170180000Y-68580000D02*
X168910000Y-67310000D01*
X165100000Y-67310000D02*
X168910000Y-67310000D01*
X162560000Y-64770000D02*
X165100000Y-67310000D01*
X109425000Y-64770000D02*
X162560000Y-64770000D01*
X109425000Y-64770000D02*
X108790000Y-64135000D01*
X170180000Y-71120000D02*
X168910000Y-69850000D01*
X165100000Y-69850000D02*
X168910000Y-69850000D01*
X163830000Y-68580000D02*
X165100000Y-69850000D01*
X163830000Y-67310000D02*
X163830000Y-68580000D01*
X162560000Y-66040000D02*
X163830000Y-67310000D01*
X109425000Y-66040000D02*
X162560000Y-66040000D01*
X109425000Y-66040000D02*
X108790000Y-65405000D01*
X128065000Y-42975000D02*
X128270000Y-43180000D01*
X85090000Y-42975000D02*
X128065000Y-42975000D01*
X85090000Y-42975000D02*
X78310000Y-36195000D01*
X85090000Y-45720000D02*
X128270000Y-45720000D01*
X83820000Y-44450000D02*
X85090000Y-45720000D01*
X83820000Y-42975000D02*
X83820000Y-44450000D01*
X83820000Y-42975000D02*
X78310000Y-37465000D01*
X83820000Y-48260000D02*
X128270000Y-48260000D01*
X82550000Y-46990000D02*
X83820000Y-48260000D01*
X82550000Y-42975000D02*
X82550000Y-46990000D01*
X82550000Y-42975000D02*
X78310000Y-38735000D01*
X137160000Y-50800000D02*
X82550000Y-50800000D01*
X81280000Y-49530000D02*
X82550000Y-50800000D01*
X81280000Y-42975000D02*
X81280000Y-49530000D01*
X81280000Y-42975000D02*
X78310000Y-40005000D01*
X139700000Y-43180000D02*
X139700000Y-36830000D01*
X138430000Y-35560000D02*
X139700000Y-36830000D01*
X109425000Y-35560000D02*
X138430000Y-35560000D01*
X109425000Y-35560000D02*
X108790000Y-36195000D01*
X139700000Y-45720000D02*
X138430000Y-44450000D01*
X134620000Y-44450000D02*
X138430000Y-44450000D01*
X133350000Y-43180000D02*
X134620000Y-44450000D01*
X133350000Y-39370000D02*
X133350000Y-43180000D01*
X132080000Y-38100000D02*
X133350000Y-39370000D01*
X109425000Y-38100000D02*
X132080000Y-38100000D01*
X109425000Y-38100000D02*
X108790000Y-37465000D01*
X139700000Y-48260000D02*
X138430000Y-46990000D01*
X133350000Y-46990000D02*
X138430000Y-46990000D01*
X132080000Y-45720000D02*
X133350000Y-46990000D01*
X132080000Y-40640000D02*
X132080000Y-45720000D01*
X130810000Y-39370000D02*
X132080000Y-40640000D01*
X109425000Y-39370000D02*
X130810000Y-39370000D01*
X109425000Y-39370000D02*
X108790000Y-38735000D01*
X139700000Y-50800000D02*
X138430000Y-49530000D01*
X132080000Y-49530000D02*
X138430000Y-49530000D01*
X130810000Y-48260000D02*
X132080000Y-49530000D01*
X130810000Y-41910000D02*
X130810000Y-48260000D01*
X129540000Y-40640000D02*
X130810000Y-41910000D01*
X109425000Y-40640000D02*
X129540000Y-40640000D01*
X109425000Y-40640000D02*
X108790000Y-40005000D01*
X33655000Y-72390000D02*
X33655000Y-71755000D01*
D20*
G36*
X175820000Y-28234092D02*
X175820000Y-124165908D01*
X174330908Y-125655000D01*
X31409092Y-125655000D01*
X29920000Y-124165908D01*
X29920000Y-121043109D01*
X31034657Y-121043109D01*
X31336218Y-121772943D01*
X31894120Y-122331819D01*
X32623427Y-122634654D01*
X33413109Y-122635343D01*
X34142943Y-122333782D01*
X34701819Y-121775880D01*
X35004654Y-121046573D01*
X35005343Y-120256891D01*
X34703782Y-119527057D01*
X34145880Y-118968181D01*
X33416573Y-118665346D01*
X32626891Y-118664657D01*
X31897057Y-118966218D01*
X31338181Y-119524120D01*
X31035346Y-120253427D01*
X31034657Y-121043109D01*
X29920000Y-121043109D01*
X29920000Y-116205000D01*
X29865954Y-115933295D01*
X29712046Y-115702954D01*
X29712043Y-115702952D01*
X27380000Y-113370908D01*
X27380000Y-111937815D01*
X31519630Y-111937815D01*
X31843980Y-112722800D01*
X32444041Y-113323909D01*
X33228459Y-113649628D01*
X34077815Y-113650370D01*
X34862800Y-113326020D01*
X35463909Y-112725959D01*
X35789628Y-111941541D01*
X35790370Y-111092185D01*
X35466020Y-110307200D01*
X34865959Y-109706091D01*
X34081541Y-109380372D01*
X33232185Y-109379630D01*
X32447200Y-109703980D01*
X31846091Y-110304041D01*
X31520372Y-111088459D01*
X31519630Y-111937815D01*
X27380000Y-111937815D01*
X27380000Y-40983599D01*
X28744699Y-40983599D01*
X29008281Y-41621515D01*
X29495918Y-42110004D01*
X29720000Y-42203051D01*
X29720000Y-44156753D01*
X29498485Y-44248281D01*
X29009996Y-44735918D01*
X28745301Y-45373373D01*
X28744699Y-46063599D01*
X29008281Y-46701515D01*
X29495918Y-47190004D01*
X29720000Y-47283051D01*
X29720000Y-53412537D01*
X29687808Y-53444673D01*
X29545162Y-53788201D01*
X29544838Y-54160167D01*
X29686883Y-54503943D01*
X29949673Y-54767192D01*
X30293201Y-54909838D01*
X30665167Y-54910162D01*
X31008943Y-54768117D01*
X31272192Y-54505327D01*
X31414838Y-54161799D01*
X31414972Y-54007815D01*
X31519630Y-54007815D01*
X31843980Y-54792800D01*
X32444041Y-55393909D01*
X33228459Y-55719628D01*
X34077815Y-55720370D01*
X34862800Y-55396020D01*
X35463909Y-54795959D01*
X35789628Y-54011541D01*
X35790370Y-53162185D01*
X35466020Y-52377200D01*
X34865959Y-51776091D01*
X34081541Y-51450372D01*
X33232185Y-51449630D01*
X32447200Y-51773980D01*
X31846091Y-52374041D01*
X31520372Y-53158459D01*
X31519630Y-54007815D01*
X31414972Y-54007815D01*
X31415162Y-53789833D01*
X31273117Y-53446057D01*
X31240000Y-53412882D01*
X31240000Y-47283247D01*
X31461515Y-47191719D01*
X31950004Y-46704082D01*
X32043051Y-46480000D01*
X33996753Y-46480000D01*
X34088281Y-46701515D01*
X34575918Y-47190004D01*
X35213373Y-47454699D01*
X35903599Y-47455301D01*
X36541515Y-47191719D01*
X37030004Y-46704082D01*
X37294699Y-46066627D01*
X37295301Y-45376401D01*
X37031719Y-44738485D01*
X36544082Y-44249996D01*
X35906627Y-43985301D01*
X35216401Y-43984699D01*
X34578485Y-44248281D01*
X34089996Y-44735918D01*
X33996949Y-44960000D01*
X32043247Y-44960000D01*
X31951719Y-44738485D01*
X31464082Y-44249996D01*
X31240000Y-44156949D01*
X31240000Y-43503795D01*
X31384716Y-43503795D01*
X31633106Y-44104943D01*
X32092637Y-44565278D01*
X32693352Y-44814716D01*
X33343795Y-44815284D01*
X33944943Y-44566894D01*
X34405278Y-44107363D01*
X34654716Y-43506648D01*
X34655284Y-42856205D01*
X34406894Y-42255057D01*
X33947363Y-41794722D01*
X33346648Y-41545284D01*
X32696205Y-41544716D01*
X32095057Y-41793106D01*
X31634722Y-42252637D01*
X31385284Y-42853352D01*
X31384716Y-43503795D01*
X31240000Y-43503795D01*
X31240000Y-42203247D01*
X31461515Y-42111719D01*
X31950004Y-41624082D01*
X32043051Y-41400000D01*
X33996753Y-41400000D01*
X34088281Y-41621515D01*
X34575918Y-42110004D01*
X35213373Y-42374699D01*
X35903599Y-42375301D01*
X36541515Y-42111719D01*
X37030004Y-41624082D01*
X37294699Y-40986627D01*
X37295301Y-40296401D01*
X37031719Y-39658485D01*
X36544082Y-39169996D01*
X36320000Y-39076949D01*
X36320000Y-34604802D01*
X39272401Y-31652401D01*
X39437148Y-31405839D01*
X39495000Y-31115000D01*
X39495000Y-29524802D01*
X40319802Y-28700000D01*
X66754290Y-28700000D01*
X66607852Y-28919161D01*
X66550000Y-29210000D01*
X66550000Y-37299367D01*
X66226799Y-37165162D01*
X65854833Y-37164838D01*
X65511057Y-37306883D01*
X65247808Y-37569673D01*
X65105162Y-37913201D01*
X65105121Y-37960077D01*
X46675198Y-56390000D01*
X31750000Y-56390000D01*
X31459161Y-56447852D01*
X31212599Y-56612599D01*
X29307599Y-58517599D01*
X29142852Y-58764161D01*
X29085000Y-59055000D01*
X29085000Y-71755000D01*
X29142852Y-72045839D01*
X29307599Y-72292401D01*
X29780226Y-72765028D01*
X29779769Y-73289383D01*
X29982582Y-73780229D01*
X30357796Y-74156098D01*
X30692527Y-74295091D01*
X30359771Y-74432582D01*
X29983902Y-74807796D01*
X29780232Y-75298287D01*
X29779769Y-75829383D01*
X29982582Y-76320229D01*
X30357796Y-76696098D01*
X30692527Y-76835091D01*
X30359771Y-76972582D01*
X29983902Y-77347796D01*
X29780232Y-77838287D01*
X29779769Y-78369383D01*
X29982582Y-78860229D01*
X30357796Y-79236098D01*
X30692527Y-79375091D01*
X30359771Y-79512582D01*
X29983902Y-79887796D01*
X29780232Y-80378287D01*
X29779769Y-80909383D01*
X29982582Y-81400229D01*
X30357796Y-81776098D01*
X30692527Y-81915091D01*
X30359771Y-82052582D01*
X29983902Y-82427796D01*
X29780232Y-82918287D01*
X29779769Y-83449383D01*
X29982582Y-83940229D01*
X30357796Y-84316098D01*
X30692527Y-84455091D01*
X30359771Y-84592582D01*
X29983902Y-84967796D01*
X29780232Y-85458287D01*
X29779769Y-85989383D01*
X29982582Y-86480229D01*
X30357796Y-86856098D01*
X30692527Y-86995091D01*
X30359771Y-87132582D01*
X29983902Y-87507796D01*
X29780232Y-87998287D01*
X29779769Y-88529383D01*
X29982582Y-89020229D01*
X30357796Y-89396098D01*
X30692527Y-89535091D01*
X30359771Y-89672582D01*
X29983902Y-90047796D01*
X29780232Y-90538287D01*
X29779769Y-91069383D01*
X29982582Y-91560229D01*
X30357796Y-91936098D01*
X30692527Y-92075091D01*
X30359771Y-92212582D01*
X29983902Y-92587796D01*
X29780232Y-93078287D01*
X29779769Y-93609383D01*
X29982582Y-94100229D01*
X30357796Y-94476098D01*
X30692527Y-94615091D01*
X30359771Y-94752582D01*
X29983902Y-95127796D01*
X29780232Y-95618287D01*
X29779769Y-96149383D01*
X29982582Y-96640229D01*
X30357796Y-97016098D01*
X30692527Y-97155091D01*
X30359771Y-97292582D01*
X29983902Y-97667796D01*
X29780232Y-98158287D01*
X29779769Y-98689383D01*
X29982582Y-99180229D01*
X30357796Y-99556098D01*
X30692527Y-99695091D01*
X30359771Y-99832582D01*
X29983902Y-100207796D01*
X29780232Y-100698287D01*
X29779769Y-101229383D01*
X29982582Y-101720229D01*
X30357796Y-102096098D01*
X30692527Y-102235091D01*
X30359771Y-102372582D01*
X29983902Y-102747796D01*
X29780232Y-103238287D01*
X29779769Y-103769383D01*
X29982582Y-104260229D01*
X30357796Y-104636098D01*
X30848287Y-104839768D01*
X31379383Y-104840231D01*
X31870229Y-104637418D01*
X32246098Y-104262204D01*
X32449768Y-103771713D01*
X32450231Y-103240617D01*
X32247418Y-102749771D01*
X31872204Y-102373902D01*
X31537473Y-102234909D01*
X31870229Y-102097418D01*
X32243297Y-101725000D01*
X32421254Y-101725000D01*
X32320232Y-101968287D01*
X32319769Y-102499383D01*
X32522582Y-102990229D01*
X32897796Y-103366098D01*
X33388287Y-103569768D01*
X33919383Y-103570231D01*
X34410229Y-103367418D01*
X34786098Y-102992204D01*
X34919980Y-102669782D01*
X35022599Y-102772401D01*
X35046933Y-102788661D01*
X34860232Y-103238287D01*
X34859769Y-103769383D01*
X35062582Y-104260229D01*
X35435000Y-104633297D01*
X35435000Y-106680000D01*
X35492852Y-106970839D01*
X35657599Y-107217401D01*
X36292599Y-107852401D01*
X36539161Y-108017148D01*
X36830000Y-108075000D01*
X53025198Y-108075000D01*
X53215000Y-108264802D01*
X53215000Y-120650000D01*
X53272852Y-120940839D01*
X53437599Y-121187401D01*
X56612599Y-124362401D01*
X56859161Y-124527148D01*
X57150000Y-124585000D01*
X96520000Y-124585000D01*
X96810839Y-124527148D01*
X97057401Y-124362401D01*
X98327401Y-123092401D01*
X98492148Y-122845840D01*
X98550000Y-122555000D01*
X98550000Y-121212463D01*
X98582192Y-121180327D01*
X98724838Y-120836799D01*
X98725162Y-120464833D01*
X98583117Y-120121057D01*
X98320327Y-119857808D01*
X97976799Y-119715162D01*
X97604833Y-119714838D01*
X97349570Y-119820310D01*
X97454838Y-119566799D01*
X97455162Y-119194833D01*
X97313117Y-118851057D01*
X97050327Y-118587808D01*
X96706799Y-118445162D01*
X96334833Y-118444838D01*
X95991057Y-118586883D01*
X95727808Y-118849673D01*
X95585162Y-119193201D01*
X95584838Y-119565167D01*
X95690310Y-119820430D01*
X95436799Y-119715162D01*
X95064833Y-119714838D01*
X94721057Y-119856883D01*
X94687882Y-119890000D01*
X94145633Y-119890000D01*
X94279838Y-119566799D01*
X94280162Y-119194833D01*
X94138117Y-118851057D01*
X93875327Y-118587808D01*
X93531799Y-118445162D01*
X93159833Y-118444838D01*
X92816057Y-118586883D01*
X92782882Y-118620000D01*
X60639802Y-118620000D01*
X59815000Y-117795198D01*
X59815000Y-116840000D01*
X166125907Y-116840000D01*
X166238946Y-117408285D01*
X166560853Y-117890054D01*
X167042622Y-118211961D01*
X167610907Y-118325000D01*
X167669093Y-118325000D01*
X168237378Y-118211961D01*
X168719147Y-117890054D01*
X168910000Y-117604422D01*
X169100853Y-117890054D01*
X169582622Y-118211961D01*
X170150907Y-118325000D01*
X170209093Y-118325000D01*
X170777378Y-118211961D01*
X171259147Y-117890054D01*
X171581054Y-117408285D01*
X171694093Y-116840000D01*
X171581054Y-116271715D01*
X171259147Y-115789946D01*
X170918447Y-115562298D01*
X171061358Y-115495183D01*
X171451645Y-115066924D01*
X171621476Y-114656890D01*
X171500155Y-114427000D01*
X170307000Y-114427000D01*
X170307000Y-114447000D01*
X170053000Y-114447000D01*
X170053000Y-114427000D01*
X167767000Y-114427000D01*
X167767000Y-114447000D01*
X167513000Y-114447000D01*
X167513000Y-114427000D01*
X166319845Y-114427000D01*
X166198524Y-114656890D01*
X166368355Y-115066924D01*
X166758642Y-115495183D01*
X166901553Y-115562298D01*
X166560853Y-115789946D01*
X166238946Y-116271715D01*
X166125907Y-116840000D01*
X59815000Y-116840000D01*
X59815000Y-103505000D01*
X59766746Y-103262414D01*
X59757148Y-103214160D01*
X59592401Y-102967599D01*
X57052401Y-100427599D01*
X56805839Y-100262852D01*
X56515000Y-100205000D01*
X39968746Y-100205000D01*
X40069768Y-99961713D01*
X40070231Y-99430617D01*
X39867418Y-98939771D01*
X39492204Y-98563902D01*
X39157473Y-98424909D01*
X39490229Y-98287418D01*
X39866098Y-97912204D01*
X40069768Y-97421713D01*
X40070231Y-96890617D01*
X39968744Y-96645000D01*
X60325000Y-96645000D01*
X60615839Y-96587148D01*
X60862401Y-96422401D01*
X61099680Y-96185122D01*
X61145167Y-96185162D01*
X61488943Y-96043117D01*
X61752192Y-95780327D01*
X61894838Y-95436799D01*
X61895162Y-95064833D01*
X61753117Y-94721057D01*
X61647290Y-94615046D01*
X61752192Y-94510327D01*
X61894838Y-94166799D01*
X61895162Y-93794833D01*
X61753117Y-93451057D01*
X61490327Y-93187808D01*
X61146799Y-93045162D01*
X61099923Y-93045121D01*
X60862401Y-92807599D01*
X60615839Y-92642852D01*
X60325000Y-92585000D01*
X39968746Y-92585000D01*
X40069768Y-92341713D01*
X40070231Y-91810617D01*
X39968744Y-91565000D01*
X48260000Y-91565000D01*
X48550839Y-91507148D01*
X48797401Y-91342401D01*
X51689635Y-88450167D01*
X60659838Y-88450167D01*
X60801883Y-88793943D01*
X61064673Y-89057192D01*
X61408201Y-89199838D01*
X61780167Y-89200162D01*
X62123943Y-89058117D01*
X62157118Y-89025000D01*
X63572537Y-89025000D01*
X63604673Y-89057192D01*
X63948201Y-89199838D01*
X64320167Y-89200162D01*
X64663943Y-89058117D01*
X64927192Y-88795327D01*
X65069838Y-88451799D01*
X65070162Y-88079833D01*
X64928117Y-87736057D01*
X64665327Y-87472808D01*
X64321799Y-87330162D01*
X63949833Y-87329838D01*
X63606057Y-87471883D01*
X63572882Y-87505000D01*
X62157463Y-87505000D01*
X62125327Y-87472808D01*
X61781799Y-87330162D01*
X61409833Y-87329838D01*
X61066057Y-87471883D01*
X60802808Y-87734673D01*
X60660162Y-88078201D01*
X60659838Y-88450167D01*
X51689635Y-88450167D01*
X66179680Y-73960122D01*
X66225167Y-73960162D01*
X66550000Y-73825944D01*
X66550000Y-83257537D01*
X66517808Y-83289673D01*
X66375162Y-83633201D01*
X66374838Y-84005167D01*
X66516883Y-84348943D01*
X66550000Y-84382118D01*
X66550000Y-90877537D01*
X66517808Y-90909673D01*
X66375162Y-91253201D01*
X66374838Y-91625167D01*
X66516883Y-91968943D01*
X66550000Y-92002118D01*
X66550000Y-106117537D01*
X66517808Y-106149673D01*
X66375162Y-106493201D01*
X66374838Y-106865167D01*
X66516883Y-107208943D01*
X66550000Y-107242118D01*
X66550000Y-109054367D01*
X66226799Y-108920162D01*
X65854833Y-108919838D01*
X65511057Y-109061883D01*
X65477882Y-109095000D01*
X62792463Y-109095000D01*
X62760327Y-109062808D01*
X62416799Y-108920162D01*
X62044833Y-108919838D01*
X61701057Y-109061883D01*
X61437808Y-109324673D01*
X61295162Y-109668201D01*
X61294838Y-110040167D01*
X61436883Y-110383943D01*
X61699673Y-110647192D01*
X62043201Y-110789838D01*
X62415167Y-110790162D01*
X62758943Y-110648117D01*
X62792118Y-110615000D01*
X65477537Y-110615000D01*
X65509673Y-110647192D01*
X65853201Y-110789838D01*
X66225167Y-110790162D01*
X66550000Y-110655944D01*
X66550000Y-113737537D01*
X66517808Y-113769673D01*
X66375162Y-114113201D01*
X66374838Y-114485167D01*
X66516883Y-114828943D01*
X66779673Y-115092192D01*
X67123201Y-115234838D01*
X67495167Y-115235162D01*
X67838943Y-115093117D01*
X68102192Y-114830327D01*
X68244838Y-114486799D01*
X68245162Y-114114833D01*
X68103117Y-113771057D01*
X68070000Y-113737882D01*
X68070000Y-107500167D01*
X77374838Y-107500167D01*
X77516883Y-107843943D01*
X77622710Y-107949954D01*
X77517808Y-108054673D01*
X77375162Y-108398201D01*
X77374838Y-108770167D01*
X77516883Y-109113943D01*
X77622710Y-109219954D01*
X77517808Y-109324673D01*
X77375162Y-109668201D01*
X77374838Y-110040167D01*
X77516883Y-110383943D01*
X77622710Y-110489954D01*
X77517808Y-110594673D01*
X77375162Y-110938201D01*
X77374838Y-111310167D01*
X77516883Y-111653943D01*
X77779673Y-111917192D01*
X78123201Y-112059838D01*
X78170077Y-112059879D01*
X82217599Y-116107401D01*
X82464160Y-116272148D01*
X82755000Y-116330000D01*
X163267537Y-116330000D01*
X163299673Y-116362192D01*
X163643201Y-116504838D01*
X164015167Y-116505162D01*
X164358943Y-116363117D01*
X164622192Y-116100327D01*
X164764838Y-115756799D01*
X164765162Y-115384833D01*
X164623117Y-115041057D01*
X164360327Y-114777808D01*
X164016799Y-114635162D01*
X163644833Y-114634838D01*
X163301057Y-114776883D01*
X163267882Y-114810000D01*
X83069802Y-114810000D01*
X79245122Y-110985320D01*
X79245162Y-110939833D01*
X79103117Y-110596057D01*
X78997290Y-110490046D01*
X79102192Y-110385327D01*
X79244838Y-110041799D01*
X79244879Y-109994923D01*
X79259802Y-109980000D01*
X107854890Y-109980000D01*
X107854838Y-110040167D01*
X107996883Y-110383943D01*
X108102710Y-110489954D01*
X107997808Y-110594673D01*
X107855162Y-110938201D01*
X107854838Y-111310167D01*
X107996883Y-111653943D01*
X108259673Y-111917192D01*
X108603201Y-112059838D01*
X108650077Y-112059879D01*
X110157599Y-113567401D01*
X110404161Y-113732148D01*
X110695000Y-113790000D01*
X166261940Y-113790000D01*
X166198524Y-113943110D01*
X166319845Y-114173000D01*
X167513000Y-114173000D01*
X167513000Y-114153000D01*
X167767000Y-114153000D01*
X167767000Y-114173000D01*
X170053000Y-114173000D01*
X170053000Y-114153000D01*
X170307000Y-114153000D01*
X170307000Y-114173000D01*
X171500155Y-114173000D01*
X171621476Y-113943110D01*
X171451645Y-113533076D01*
X171061358Y-113104817D01*
X170918447Y-113037702D01*
X171259147Y-112810054D01*
X171581054Y-112328285D01*
X171694093Y-111760000D01*
X171581054Y-111191715D01*
X171259147Y-110709946D01*
X170929974Y-110490000D01*
X171259147Y-110270054D01*
X171581054Y-109788285D01*
X171694093Y-109220000D01*
X171581054Y-108651715D01*
X171259147Y-108169946D01*
X170929974Y-107950000D01*
X171259147Y-107730054D01*
X171581054Y-107248285D01*
X171694093Y-106680000D01*
X171581054Y-106111715D01*
X171259147Y-105629946D01*
X170929974Y-105410000D01*
X171259147Y-105190054D01*
X171581054Y-104708285D01*
X171694093Y-104140000D01*
X171581054Y-103571715D01*
X171259147Y-103089946D01*
X170940000Y-102876699D01*
X170940000Y-102870000D01*
X170904905Y-102693569D01*
X170882148Y-102579160D01*
X170717401Y-102332599D01*
X169447401Y-101062599D01*
X169200839Y-100897852D01*
X168910000Y-100840000D01*
X135890000Y-100840000D01*
X135647414Y-100888254D01*
X135599160Y-100897852D01*
X135352599Y-101062599D01*
X133210320Y-103204878D01*
X133164833Y-103204838D01*
X132821057Y-103346883D01*
X132557808Y-103609673D01*
X132415162Y-103953201D01*
X132414838Y-104325167D01*
X132549056Y-104650000D01*
X80215000Y-104650000D01*
X79924161Y-104707852D01*
X79677599Y-104872599D01*
X78170320Y-106379878D01*
X78124833Y-106379838D01*
X77781057Y-106521883D01*
X77517808Y-106784673D01*
X77375162Y-107128201D01*
X77374838Y-107500167D01*
X68070000Y-107500167D01*
X68070000Y-107242463D01*
X68102192Y-107210327D01*
X68244838Y-106866799D01*
X68245162Y-106494833D01*
X68103117Y-106151057D01*
X68070000Y-106117882D01*
X68070000Y-100644802D01*
X68894802Y-99820000D01*
X94935198Y-99820000D01*
X96854878Y-101739680D01*
X96854838Y-101785167D01*
X96996883Y-102128943D01*
X97259673Y-102392192D01*
X97603201Y-102534838D01*
X97975167Y-102535162D01*
X98318943Y-102393117D01*
X98582192Y-102130327D01*
X98724838Y-101786799D01*
X98725162Y-101414833D01*
X98583117Y-101071057D01*
X98320327Y-100807808D01*
X97976799Y-100665162D01*
X97929923Y-100665121D01*
X96324802Y-99060000D01*
X98327401Y-97057401D01*
X98492148Y-96810840D01*
X98512843Y-96706799D01*
X98550000Y-96520000D01*
X135645907Y-96520000D01*
X135758946Y-97088285D01*
X136080853Y-97570054D01*
X136562622Y-97891961D01*
X137130907Y-98005000D01*
X137189093Y-98005000D01*
X137757378Y-97891961D01*
X138239147Y-97570054D01*
X138430000Y-97284422D01*
X138620853Y-97570054D01*
X139102622Y-97891961D01*
X139670907Y-98005000D01*
X139729093Y-98005000D01*
X140297378Y-97891961D01*
X140779147Y-97570054D01*
X141101054Y-97088285D01*
X141214093Y-96520000D01*
X141101054Y-95951715D01*
X140779147Y-95469946D01*
X140438447Y-95242298D01*
X140581358Y-95175183D01*
X140971645Y-94746924D01*
X141141476Y-94336890D01*
X141020155Y-94107000D01*
X139827000Y-94107000D01*
X139827000Y-94127000D01*
X139573000Y-94127000D01*
X139573000Y-94107000D01*
X137287000Y-94107000D01*
X137287000Y-94127000D01*
X137033000Y-94127000D01*
X137033000Y-94107000D01*
X135839845Y-94107000D01*
X135718524Y-94336890D01*
X135888355Y-94746924D01*
X136278642Y-95175183D01*
X136421553Y-95242298D01*
X136080853Y-95469946D01*
X135758946Y-95951715D01*
X135645907Y-96520000D01*
X98550000Y-96520000D01*
X98550000Y-93272463D01*
X98582192Y-93240327D01*
X98724838Y-92896799D01*
X98725162Y-92524833D01*
X98590944Y-92200000D01*
X135887046Y-92200000D01*
X136080853Y-92490054D01*
X136421553Y-92717702D01*
X136278642Y-92784817D01*
X135888355Y-93213076D01*
X135718524Y-93623110D01*
X135839845Y-93853000D01*
X137033000Y-93853000D01*
X137033000Y-93833000D01*
X137287000Y-93833000D01*
X137287000Y-93853000D01*
X139573000Y-93853000D01*
X139573000Y-93833000D01*
X139827000Y-93833000D01*
X139827000Y-93853000D01*
X141020155Y-93853000D01*
X141141476Y-93623110D01*
X140971645Y-93213076D01*
X140581358Y-92784817D01*
X140438447Y-92717702D01*
X140779147Y-92490054D01*
X141101054Y-92008285D01*
X141214093Y-91440000D01*
X141101054Y-90871715D01*
X140779147Y-90389946D01*
X140449974Y-90170000D01*
X140779147Y-89950054D01*
X141101054Y-89468285D01*
X141214093Y-88900000D01*
X141101054Y-88331715D01*
X140779147Y-87849946D01*
X140449974Y-87630000D01*
X140779147Y-87410054D01*
X141101054Y-86928285D01*
X141214093Y-86360000D01*
X141101054Y-85791715D01*
X140779147Y-85309946D01*
X140449974Y-85090000D01*
X140779147Y-84870054D01*
X141101054Y-84388285D01*
X141214093Y-83820000D01*
X141101054Y-83251715D01*
X140779147Y-82769946D01*
X140460000Y-82556699D01*
X140460000Y-82550000D01*
X140424905Y-82373569D01*
X140402148Y-82259160D01*
X140237401Y-82012599D01*
X138967401Y-80742599D01*
X138720839Y-80577852D01*
X138430000Y-80520000D01*
X135890000Y-80520000D01*
X135599160Y-80577852D01*
X135352599Y-80742599D01*
X134305198Y-81790000D01*
X113592463Y-81790000D01*
X113560327Y-81757808D01*
X113216799Y-81615162D01*
X112844833Y-81614838D01*
X112501057Y-81756883D01*
X112237808Y-82019673D01*
X112095162Y-82363201D01*
X112094838Y-82735167D01*
X112229056Y-83060000D01*
X78945000Y-83060000D01*
X78654161Y-83117852D01*
X78407599Y-83282599D01*
X78170320Y-83519878D01*
X78124833Y-83519838D01*
X77781057Y-83661883D01*
X77517808Y-83924673D01*
X77375162Y-84268201D01*
X77374838Y-84640167D01*
X77516883Y-84983943D01*
X77622710Y-85089954D01*
X77517808Y-85194673D01*
X77375162Y-85538201D01*
X77374838Y-85910167D01*
X77516883Y-86253943D01*
X77622710Y-86359954D01*
X77517808Y-86464673D01*
X77375162Y-86808201D01*
X77374838Y-87180167D01*
X77516883Y-87523943D01*
X77622710Y-87629954D01*
X77517808Y-87734673D01*
X77375162Y-88078201D01*
X77374838Y-88450167D01*
X77516883Y-88793943D01*
X77779673Y-89057192D01*
X78123201Y-89199838D01*
X78170077Y-89199879D01*
X80920198Y-91950000D01*
X70412463Y-91950000D01*
X70380327Y-91917808D01*
X70036799Y-91775162D01*
X69664833Y-91774838D01*
X69321057Y-91916883D01*
X69057808Y-92179673D01*
X68915162Y-92523201D01*
X68914838Y-92895167D01*
X69056883Y-93238943D01*
X69162710Y-93344954D01*
X69057808Y-93449673D01*
X68915162Y-93793201D01*
X68914838Y-94165167D01*
X69020310Y-94420430D01*
X68766799Y-94315162D01*
X68394833Y-94314838D01*
X68070000Y-94449056D01*
X68070000Y-92002463D01*
X68102192Y-91970327D01*
X68244838Y-91626799D01*
X68245162Y-91254833D01*
X68103117Y-90911057D01*
X68070000Y-90877882D01*
X68070000Y-84382463D01*
X68102192Y-84350327D01*
X68244838Y-84006799D01*
X68245162Y-83634833D01*
X68103117Y-83291057D01*
X68070000Y-83257882D01*
X68070000Y-78290167D01*
X68914838Y-78290167D01*
X69056883Y-78633943D01*
X69319673Y-78897192D01*
X69619332Y-79021622D01*
X69550162Y-79188201D01*
X69549838Y-79560167D01*
X69619432Y-79728597D01*
X69321057Y-79851883D01*
X69057808Y-80114673D01*
X68915162Y-80458201D01*
X68914838Y-80830167D01*
X69056883Y-81173943D01*
X69319673Y-81437192D01*
X69663201Y-81579838D01*
X70035167Y-81580162D01*
X70378943Y-81438117D01*
X70412118Y-81405000D01*
X88337537Y-81405000D01*
X88369673Y-81437192D01*
X88713201Y-81579838D01*
X89085167Y-81580162D01*
X89428943Y-81438117D01*
X89692192Y-81175327D01*
X89834838Y-80831799D01*
X89835162Y-80459833D01*
X89700944Y-80135000D01*
X94687537Y-80135000D01*
X94719673Y-80167192D01*
X95063201Y-80309838D01*
X95435167Y-80310162D01*
X95778943Y-80168117D01*
X96042192Y-79905327D01*
X96184838Y-79561799D01*
X96185162Y-79189833D01*
X96043117Y-78846057D01*
X95780327Y-78582808D01*
X95480668Y-78458378D01*
X95549838Y-78291799D01*
X95550162Y-77919833D01*
X95408117Y-77576057D01*
X95145327Y-77312808D01*
X94801799Y-77170162D01*
X94429833Y-77169838D01*
X94086057Y-77311883D01*
X94052882Y-77345000D01*
X70412463Y-77345000D01*
X70380327Y-77312808D01*
X70036799Y-77170162D01*
X69664833Y-77169838D01*
X69321057Y-77311883D01*
X69057808Y-77574673D01*
X68915162Y-77918201D01*
X68914838Y-78290167D01*
X68070000Y-78290167D01*
X68070000Y-77784802D01*
X68894802Y-76960000D01*
X94935198Y-76960000D01*
X96854878Y-78879680D01*
X96854838Y-78925167D01*
X96996883Y-79268943D01*
X97259673Y-79532192D01*
X97603201Y-79674838D01*
X97975167Y-79675162D01*
X98318943Y-79533117D01*
X98582192Y-79270327D01*
X98724838Y-78926799D01*
X98725162Y-78554833D01*
X98583117Y-78211057D01*
X98320327Y-77947808D01*
X97976799Y-77805162D01*
X97929923Y-77805121D01*
X96324802Y-76200000D01*
X166125907Y-76200000D01*
X166238946Y-76768285D01*
X166560853Y-77250054D01*
X167042622Y-77571961D01*
X167610907Y-77685000D01*
X167669093Y-77685000D01*
X168237378Y-77571961D01*
X168719147Y-77250054D01*
X168910000Y-76964422D01*
X169100853Y-77250054D01*
X169582622Y-77571961D01*
X170150907Y-77685000D01*
X170209093Y-77685000D01*
X170777378Y-77571961D01*
X171259147Y-77250054D01*
X171581054Y-76768285D01*
X171694093Y-76200000D01*
X171581054Y-75631715D01*
X171259147Y-75149946D01*
X170918447Y-74922298D01*
X171061358Y-74855183D01*
X171451645Y-74426924D01*
X171621476Y-74016890D01*
X171500155Y-73787000D01*
X170307000Y-73787000D01*
X170307000Y-73807000D01*
X170053000Y-73807000D01*
X170053000Y-73787000D01*
X167767000Y-73787000D01*
X167767000Y-73807000D01*
X167513000Y-73807000D01*
X167513000Y-73787000D01*
X166319845Y-73787000D01*
X166198524Y-74016890D01*
X166368355Y-74426924D01*
X166758642Y-74855183D01*
X166901553Y-74922298D01*
X166560853Y-75149946D01*
X166238946Y-75631715D01*
X166125907Y-76200000D01*
X96324802Y-76200000D01*
X97929680Y-74595122D01*
X97975167Y-74595162D01*
X98318943Y-74453117D01*
X98582192Y-74190327D01*
X98724838Y-73846799D01*
X98725162Y-73474833D01*
X98583117Y-73131057D01*
X98320327Y-72867808D01*
X98020668Y-72743378D01*
X98089838Y-72576799D01*
X98090162Y-72204833D01*
X97948117Y-71861057D01*
X97762384Y-71675000D01*
X166236303Y-71675000D01*
X166238946Y-71688285D01*
X166560853Y-72170054D01*
X166901553Y-72397702D01*
X166758642Y-72464817D01*
X166368355Y-72893076D01*
X166198524Y-73303110D01*
X166319845Y-73533000D01*
X167513000Y-73533000D01*
X167513000Y-73513000D01*
X167767000Y-73513000D01*
X167767000Y-73533000D01*
X170053000Y-73533000D01*
X170053000Y-73513000D01*
X170307000Y-73513000D01*
X170307000Y-73533000D01*
X171500155Y-73533000D01*
X171621476Y-73303110D01*
X171451645Y-72893076D01*
X171061358Y-72464817D01*
X170918447Y-72397702D01*
X171259147Y-72170054D01*
X171581054Y-71688285D01*
X171694093Y-71120000D01*
X171581054Y-70551715D01*
X171259147Y-70069946D01*
X170929974Y-69850000D01*
X171259147Y-69630054D01*
X171581054Y-69148285D01*
X171694093Y-68580000D01*
X171581054Y-68011715D01*
X171259147Y-67529946D01*
X170929974Y-67310000D01*
X171259147Y-67090054D01*
X171581054Y-66608285D01*
X171694093Y-66040000D01*
X171581054Y-65471715D01*
X171259147Y-64989946D01*
X170929974Y-64770000D01*
X171259147Y-64550054D01*
X171581054Y-64068285D01*
X171694093Y-63500000D01*
X171581054Y-62931715D01*
X171259147Y-62449946D01*
X170940000Y-62236699D01*
X170940000Y-59690000D01*
X170882148Y-59399161D01*
X170882148Y-59399160D01*
X170717401Y-59152599D01*
X169447401Y-57882599D01*
X169200839Y-57717852D01*
X168910000Y-57660000D01*
X113592463Y-57660000D01*
X113560327Y-57627808D01*
X113216799Y-57485162D01*
X112844833Y-57484838D01*
X112501057Y-57626883D01*
X112237808Y-57889673D01*
X112095162Y-58233201D01*
X112094838Y-58605167D01*
X112236883Y-58948943D01*
X112499673Y-59212192D01*
X112843201Y-59354838D01*
X113215167Y-59355162D01*
X113558943Y-59213117D01*
X113592118Y-59180000D01*
X168595198Y-59180000D01*
X169420000Y-60004802D01*
X169420000Y-62236699D01*
X169100853Y-62449946D01*
X169100029Y-62451179D01*
X169093162Y-62414683D01*
X168954090Y-62198559D01*
X168741890Y-62053569D01*
X168490000Y-62002560D01*
X167217362Y-62002560D01*
X165637401Y-60422599D01*
X165390839Y-60257852D01*
X165100000Y-60200000D01*
X78945000Y-60200000D01*
X78654161Y-60257852D01*
X78407599Y-60422599D01*
X78170320Y-60659878D01*
X78124833Y-60659838D01*
X77781057Y-60801883D01*
X77517808Y-61064673D01*
X77375162Y-61408201D01*
X77374838Y-61780167D01*
X77516883Y-62123943D01*
X77622710Y-62229954D01*
X77517808Y-62334673D01*
X77375162Y-62678201D01*
X77374838Y-63050167D01*
X77516883Y-63393943D01*
X77622710Y-63499954D01*
X77517808Y-63604673D01*
X77375162Y-63948201D01*
X77374838Y-64320167D01*
X77516883Y-64663943D01*
X77622710Y-64769954D01*
X77517808Y-64874673D01*
X77375162Y-65218201D01*
X77374838Y-65590167D01*
X77516883Y-65933943D01*
X77779673Y-66197192D01*
X78123201Y-66339838D01*
X78170077Y-66339879D01*
X80847310Y-69017112D01*
X80751057Y-69056883D01*
X80717882Y-69090000D01*
X70485000Y-69090000D01*
X70194161Y-69147852D01*
X69947599Y-69312599D01*
X69710320Y-69549878D01*
X69664833Y-69549838D01*
X69321057Y-69691883D01*
X69057808Y-69954673D01*
X68915162Y-70298201D01*
X68914838Y-70670167D01*
X69056883Y-71013943D01*
X69319673Y-71277192D01*
X69619332Y-71401622D01*
X69583235Y-71488554D01*
X69321057Y-71596883D01*
X69057808Y-71859673D01*
X68915162Y-72203201D01*
X68914838Y-72575167D01*
X69056883Y-72918943D01*
X69162710Y-73024954D01*
X69057808Y-73129673D01*
X68915162Y-73473201D01*
X68914838Y-73845167D01*
X69056883Y-74188943D01*
X69162710Y-74294954D01*
X69057808Y-74399673D01*
X68915162Y-74743201D01*
X68914838Y-75115167D01*
X69049056Y-75440000D01*
X68580000Y-75440000D01*
X68289160Y-75497852D01*
X68070000Y-75644290D01*
X68070000Y-69142463D01*
X68102192Y-69110327D01*
X68244838Y-68766799D01*
X68245162Y-68394833D01*
X68103117Y-68051057D01*
X68070000Y-68017882D01*
X68070000Y-61522463D01*
X68102192Y-61490327D01*
X68244838Y-61146799D01*
X68245162Y-60774833D01*
X68103117Y-60431057D01*
X68070000Y-60397882D01*
X68070000Y-54924802D01*
X68894802Y-54100000D01*
X94935198Y-54100000D01*
X96854878Y-56019680D01*
X96854838Y-56065167D01*
X96996883Y-56408943D01*
X97259673Y-56672192D01*
X97603201Y-56814838D01*
X97975167Y-56815162D01*
X98318943Y-56673117D01*
X98582192Y-56410327D01*
X98724838Y-56066799D01*
X98725000Y-55880000D01*
X135645907Y-55880000D01*
X135758946Y-56448285D01*
X136080853Y-56930054D01*
X136562622Y-57251961D01*
X137130907Y-57365000D01*
X137189093Y-57365000D01*
X137757378Y-57251961D01*
X138239147Y-56930054D01*
X138430000Y-56644422D01*
X138620853Y-56930054D01*
X139102622Y-57251961D01*
X139670907Y-57365000D01*
X139729093Y-57365000D01*
X140297378Y-57251961D01*
X140779147Y-56930054D01*
X141101054Y-56448285D01*
X141214093Y-55880000D01*
X141101054Y-55311715D01*
X140779147Y-54829946D01*
X140438447Y-54602298D01*
X140581358Y-54535183D01*
X140971645Y-54106924D01*
X141141476Y-53696890D01*
X141020155Y-53467000D01*
X139827000Y-53467000D01*
X139827000Y-53487000D01*
X139573000Y-53487000D01*
X139573000Y-53467000D01*
X137287000Y-53467000D01*
X137287000Y-53487000D01*
X137033000Y-53487000D01*
X137033000Y-53467000D01*
X135839845Y-53467000D01*
X135718524Y-53696890D01*
X135888355Y-54106924D01*
X136278642Y-54535183D01*
X136421553Y-54602298D01*
X136080853Y-54829946D01*
X135758946Y-55311715D01*
X135645907Y-55880000D01*
X98725000Y-55880000D01*
X98725162Y-55694833D01*
X98583117Y-55351057D01*
X98320327Y-55087808D01*
X97976799Y-54945162D01*
X97929923Y-54945121D01*
X96940388Y-53955586D01*
X97057401Y-53877401D01*
X97929680Y-53005122D01*
X97975167Y-53005162D01*
X98318943Y-52863117D01*
X98582192Y-52600327D01*
X98724838Y-52256799D01*
X98725162Y-51884833D01*
X98590944Y-51560000D01*
X135887046Y-51560000D01*
X136080853Y-51850054D01*
X136421553Y-52077702D01*
X136278642Y-52144817D01*
X135888355Y-52573076D01*
X135718524Y-52983110D01*
X135839845Y-53213000D01*
X137033000Y-53213000D01*
X137033000Y-53193000D01*
X137287000Y-53193000D01*
X137287000Y-53213000D01*
X139573000Y-53213000D01*
X139573000Y-53193000D01*
X139827000Y-53193000D01*
X139827000Y-53213000D01*
X141020155Y-53213000D01*
X141141476Y-52983110D01*
X140971645Y-52573076D01*
X140581358Y-52144817D01*
X140438447Y-52077702D01*
X140779147Y-51850054D01*
X141101054Y-51368285D01*
X141214093Y-50800000D01*
X141101054Y-50231715D01*
X140779147Y-49749946D01*
X140449974Y-49530000D01*
X140779147Y-49310054D01*
X141101054Y-48828285D01*
X141214093Y-48260000D01*
X141101054Y-47691715D01*
X140779147Y-47209946D01*
X140449974Y-46990000D01*
X140779147Y-46770054D01*
X141101054Y-46288285D01*
X141214093Y-45720000D01*
X141101054Y-45151715D01*
X140779147Y-44669946D01*
X140449974Y-44450000D01*
X140779147Y-44230054D01*
X141101054Y-43748285D01*
X141214093Y-43180000D01*
X141101054Y-42611715D01*
X140779147Y-42129946D01*
X140460000Y-41916699D01*
X140460000Y-38621834D01*
X154844543Y-38621834D01*
X155244853Y-39590658D01*
X155985443Y-40332542D01*
X156953567Y-40734542D01*
X158001834Y-40735457D01*
X158970658Y-40335147D01*
X159331412Y-39975022D01*
X161784584Y-39975022D01*
X162005353Y-40345743D01*
X162977012Y-40739119D01*
X164025247Y-40730713D01*
X164954647Y-40345743D01*
X165175416Y-39975022D01*
X163480000Y-38279605D01*
X161784584Y-39975022D01*
X159331412Y-39975022D01*
X159712542Y-39594557D01*
X160114542Y-38626433D01*
X160115440Y-37597012D01*
X160840881Y-37597012D01*
X160849287Y-38645247D01*
X161234257Y-39574647D01*
X161604978Y-39795416D01*
X163300395Y-38100000D01*
X163659605Y-38100000D01*
X165355022Y-39795416D01*
X165725743Y-39574647D01*
X166119119Y-38602988D01*
X166110713Y-37554753D01*
X165725743Y-36625353D01*
X165355022Y-36404584D01*
X163659605Y-38100000D01*
X163300395Y-38100000D01*
X161604978Y-36404584D01*
X161234257Y-36625353D01*
X160840881Y-37597012D01*
X160115440Y-37597012D01*
X160115457Y-37578166D01*
X159715147Y-36609342D01*
X159331454Y-36224978D01*
X161784584Y-36224978D01*
X163480000Y-37920395D01*
X165175416Y-36224978D01*
X164954647Y-35854257D01*
X163982988Y-35460881D01*
X162934753Y-35469287D01*
X162005353Y-35854257D01*
X161784584Y-36224978D01*
X159331454Y-36224978D01*
X158974557Y-35867458D01*
X158006433Y-35465458D01*
X156958166Y-35464543D01*
X155989342Y-35864853D01*
X155247458Y-36605443D01*
X154845458Y-37573567D01*
X154844543Y-38621834D01*
X140460000Y-38621834D01*
X140460000Y-36830000D01*
X140416108Y-36609342D01*
X140402148Y-36539160D01*
X140237401Y-36292599D01*
X138967401Y-35022599D01*
X138720839Y-34857852D01*
X138430000Y-34800000D01*
X109425000Y-34800000D01*
X109134161Y-34857852D01*
X108887599Y-35022599D01*
X108650320Y-35259878D01*
X108604833Y-35259838D01*
X108261057Y-35401883D01*
X107997808Y-35664673D01*
X107855162Y-36008201D01*
X107854838Y-36380167D01*
X107996883Y-36723943D01*
X108102710Y-36829954D01*
X107997808Y-36934673D01*
X107855162Y-37278201D01*
X107854838Y-37650167D01*
X107996883Y-37993943D01*
X108102710Y-38099954D01*
X107997808Y-38204673D01*
X107855162Y-38548201D01*
X107854838Y-38920167D01*
X107996883Y-39263943D01*
X108102710Y-39369954D01*
X107997808Y-39474673D01*
X107855162Y-39818201D01*
X107854838Y-40190167D01*
X107996883Y-40533943D01*
X108259673Y-40797192D01*
X108603201Y-40939838D01*
X108650077Y-40939879D01*
X108887599Y-41177401D01*
X109134161Y-41342148D01*
X109425000Y-41400000D01*
X129225198Y-41400000D01*
X130050000Y-42224802D01*
X130050000Y-48260000D01*
X130107852Y-48550839D01*
X130272599Y-48797401D01*
X131515198Y-50040000D01*
X82864802Y-50040000D01*
X82040000Y-49215198D01*
X82040000Y-47554802D01*
X83282599Y-48797401D01*
X83529160Y-48962148D01*
X83820000Y-49020000D01*
X127707537Y-49020000D01*
X127739673Y-49052192D01*
X128083201Y-49194838D01*
X128455167Y-49195162D01*
X128798943Y-49053117D01*
X129062192Y-48790327D01*
X129204838Y-48446799D01*
X129205162Y-48074833D01*
X129063117Y-47731057D01*
X128800327Y-47467808D01*
X128456799Y-47325162D01*
X128084833Y-47324838D01*
X127741057Y-47466883D01*
X127707882Y-47500000D01*
X84134802Y-47500000D01*
X83310000Y-46675198D01*
X83310000Y-45014802D01*
X84552599Y-46257401D01*
X84799160Y-46422148D01*
X85090000Y-46480000D01*
X127707537Y-46480000D01*
X127739673Y-46512192D01*
X128083201Y-46654838D01*
X128455167Y-46655162D01*
X128798943Y-46513117D01*
X129062192Y-46250327D01*
X129204838Y-45906799D01*
X129205162Y-45534833D01*
X129063117Y-45191057D01*
X128800327Y-44927808D01*
X128456799Y-44785162D01*
X128084833Y-44784838D01*
X127741057Y-44926883D01*
X127707882Y-44960000D01*
X85404802Y-44960000D01*
X84580000Y-44135198D01*
X84580000Y-43530710D01*
X84799161Y-43677148D01*
X85090000Y-43735000D01*
X127502895Y-43735000D01*
X127739673Y-43972192D01*
X128083201Y-44114838D01*
X128455167Y-44115162D01*
X128798943Y-43973117D01*
X129062192Y-43710327D01*
X129204838Y-43366799D01*
X129205162Y-42994833D01*
X129063117Y-42651057D01*
X128800327Y-42387808D01*
X128456799Y-42245162D01*
X128215577Y-42244952D01*
X128065000Y-42215000D01*
X85404802Y-42215000D01*
X79245122Y-36055320D01*
X79245162Y-36009833D01*
X79103117Y-35666057D01*
X78840327Y-35402808D01*
X78496799Y-35260162D01*
X78124833Y-35259838D01*
X77781057Y-35401883D01*
X77517808Y-35664673D01*
X77375162Y-36008201D01*
X77374838Y-36380167D01*
X77516883Y-36723943D01*
X77622710Y-36829954D01*
X77517808Y-36934673D01*
X77375162Y-37278201D01*
X77374838Y-37650167D01*
X77516883Y-37993943D01*
X77622710Y-38099954D01*
X77517808Y-38204673D01*
X77375162Y-38548201D01*
X77374838Y-38920167D01*
X77516883Y-39263943D01*
X77622710Y-39369954D01*
X77517808Y-39474673D01*
X77375162Y-39818201D01*
X77374838Y-40190167D01*
X77516883Y-40533943D01*
X77779673Y-40797192D01*
X78123201Y-40939838D01*
X78170077Y-40939879D01*
X80520000Y-43289802D01*
X80520000Y-49530000D01*
X80577852Y-49820839D01*
X80742599Y-50067401D01*
X82012599Y-51337401D01*
X82259160Y-51502148D01*
X82550000Y-51560000D01*
X96989367Y-51560000D01*
X96855162Y-51883201D01*
X96855121Y-51930077D01*
X96205198Y-52580000D01*
X68580000Y-52580000D01*
X68289160Y-52637852D01*
X68070000Y-52784290D01*
X68070000Y-43742463D01*
X68102192Y-43710327D01*
X68244838Y-43366799D01*
X68245162Y-42994833D01*
X68103117Y-42651057D01*
X68070000Y-42617882D01*
X68070000Y-36320000D01*
X68375000Y-36320000D01*
X68665839Y-36262148D01*
X68912401Y-36097401D01*
X69149680Y-35860122D01*
X69195167Y-35860162D01*
X69538943Y-35718117D01*
X69802192Y-35455327D01*
X69944838Y-35111799D01*
X69945162Y-34739833D01*
X69803117Y-34396057D01*
X69697290Y-34290046D01*
X69802192Y-34185327D01*
X69876172Y-34007164D01*
X69917148Y-33945839D01*
X69931411Y-33874135D01*
X69944838Y-33841799D01*
X69944869Y-33806479D01*
X69975000Y-33655000D01*
X69945132Y-33504842D01*
X69945162Y-33469833D01*
X69931675Y-33437191D01*
X69917148Y-33364161D01*
X69876142Y-33302790D01*
X69803117Y-33126057D01*
X69540327Y-32862808D01*
X69196799Y-32720162D01*
X68824833Y-32719838D01*
X68481057Y-32861883D01*
X68217808Y-33124673D01*
X68075162Y-33468201D01*
X68074838Y-33840167D01*
X68216883Y-34183943D01*
X68322710Y-34289954D01*
X68217808Y-34394673D01*
X68075162Y-34738201D01*
X68075121Y-34785077D01*
X68070000Y-34790198D01*
X68070000Y-29524802D01*
X68894802Y-28700000D01*
X94935198Y-28700000D01*
X95760000Y-29524802D01*
X95760000Y-33727537D01*
X95727808Y-33759673D01*
X95585162Y-34103201D01*
X95584838Y-34475167D01*
X95726883Y-34818943D01*
X95989673Y-35082192D01*
X96333201Y-35224838D01*
X96705167Y-35225162D01*
X97048943Y-35083117D01*
X97312192Y-34820327D01*
X97454838Y-34476799D01*
X97455162Y-34104833D01*
X97379549Y-33921834D01*
X157844543Y-33921834D01*
X158244853Y-34890658D01*
X158985443Y-35632542D01*
X159953567Y-36034542D01*
X161001834Y-36035457D01*
X161970658Y-35635147D01*
X162712542Y-34894557D01*
X163114542Y-33926433D01*
X163115457Y-32878166D01*
X162715147Y-31909342D01*
X161974557Y-31167458D01*
X161006433Y-30765458D01*
X159958166Y-30764543D01*
X158989342Y-31164853D01*
X158247458Y-31905443D01*
X157845458Y-32873567D01*
X157844543Y-33921834D01*
X97379549Y-33921834D01*
X97313117Y-33761057D01*
X97280000Y-33727882D01*
X97280000Y-29210000D01*
X97222148Y-28919161D01*
X97222148Y-28919160D01*
X97057401Y-28672599D01*
X95787401Y-27402599D01*
X95540839Y-27237852D01*
X95250000Y-27180000D01*
X40005000Y-27180000D01*
X39714160Y-27237852D01*
X39467599Y-27402599D01*
X38197599Y-28672599D01*
X38032852Y-28919161D01*
X37975000Y-29210000D01*
X37975000Y-30800198D01*
X35022599Y-33752599D01*
X34857852Y-33999161D01*
X34800000Y-34290000D01*
X34800000Y-39076753D01*
X34578485Y-39168281D01*
X34089996Y-39655918D01*
X33996949Y-39880000D01*
X32043247Y-39880000D01*
X31951719Y-39658485D01*
X31464082Y-39169996D01*
X30826627Y-38905301D01*
X30136401Y-38904699D01*
X29498485Y-39168281D01*
X29009996Y-39655918D01*
X28745301Y-40293373D01*
X28744699Y-40983599D01*
X27380000Y-40983599D01*
X27380000Y-39029092D01*
X29712043Y-36697048D01*
X29712046Y-36697046D01*
X29865954Y-36466705D01*
X29920000Y-36195000D01*
X29920000Y-32143109D01*
X31034657Y-32143109D01*
X31336218Y-32872943D01*
X31894120Y-33431819D01*
X32623427Y-33734654D01*
X33413109Y-33735343D01*
X34142943Y-33433782D01*
X34701819Y-32875880D01*
X35004654Y-32146573D01*
X35005343Y-31356891D01*
X34703782Y-30627057D01*
X34145880Y-30068181D01*
X33416573Y-29765346D01*
X32626891Y-29764657D01*
X31897057Y-30066218D01*
X31338181Y-30624120D01*
X31035346Y-31353427D01*
X31034657Y-32143109D01*
X29920000Y-32143109D01*
X29920000Y-28234092D01*
X31409092Y-26745000D01*
X174330908Y-26745000D01*
X175820000Y-28234092D01*
X175820000Y-28234092D01*
G37*
X175820000Y-28234092D02*
X175820000Y-124165908D01*
X174330908Y-125655000D01*
X31409092Y-125655000D01*
X29920000Y-124165908D01*
X29920000Y-121043109D01*
X31034657Y-121043109D01*
X31336218Y-121772943D01*
X31894120Y-122331819D01*
X32623427Y-122634654D01*
X33413109Y-122635343D01*
X34142943Y-122333782D01*
X34701819Y-121775880D01*
X35004654Y-121046573D01*
X35005343Y-120256891D01*
X34703782Y-119527057D01*
X34145880Y-118968181D01*
X33416573Y-118665346D01*
X32626891Y-118664657D01*
X31897057Y-118966218D01*
X31338181Y-119524120D01*
X31035346Y-120253427D01*
X31034657Y-121043109D01*
X29920000Y-121043109D01*
X29920000Y-116205000D01*
X29865954Y-115933295D01*
X29712046Y-115702954D01*
X29712043Y-115702952D01*
X27380000Y-113370908D01*
X27380000Y-111937815D01*
X31519630Y-111937815D01*
X31843980Y-112722800D01*
X32444041Y-113323909D01*
X33228459Y-113649628D01*
X34077815Y-113650370D01*
X34862800Y-113326020D01*
X35463909Y-112725959D01*
X35789628Y-111941541D01*
X35790370Y-111092185D01*
X35466020Y-110307200D01*
X34865959Y-109706091D01*
X34081541Y-109380372D01*
X33232185Y-109379630D01*
X32447200Y-109703980D01*
X31846091Y-110304041D01*
X31520372Y-111088459D01*
X31519630Y-111937815D01*
X27380000Y-111937815D01*
X27380000Y-40983599D01*
X28744699Y-40983599D01*
X29008281Y-41621515D01*
X29495918Y-42110004D01*
X29720000Y-42203051D01*
X29720000Y-44156753D01*
X29498485Y-44248281D01*
X29009996Y-44735918D01*
X28745301Y-45373373D01*
X28744699Y-46063599D01*
X29008281Y-46701515D01*
X29495918Y-47190004D01*
X29720000Y-47283051D01*
X29720000Y-53412537D01*
X29687808Y-53444673D01*
X29545162Y-53788201D01*
X29544838Y-54160167D01*
X29686883Y-54503943D01*
X29949673Y-54767192D01*
X30293201Y-54909838D01*
X30665167Y-54910162D01*
X31008943Y-54768117D01*
X31272192Y-54505327D01*
X31414838Y-54161799D01*
X31414972Y-54007815D01*
X31519630Y-54007815D01*
X31843980Y-54792800D01*
X32444041Y-55393909D01*
X33228459Y-55719628D01*
X34077815Y-55720370D01*
X34862800Y-55396020D01*
X35463909Y-54795959D01*
X35789628Y-54011541D01*
X35790370Y-53162185D01*
X35466020Y-52377200D01*
X34865959Y-51776091D01*
X34081541Y-51450372D01*
X33232185Y-51449630D01*
X32447200Y-51773980D01*
X31846091Y-52374041D01*
X31520372Y-53158459D01*
X31519630Y-54007815D01*
X31414972Y-54007815D01*
X31415162Y-53789833D01*
X31273117Y-53446057D01*
X31240000Y-53412882D01*
X31240000Y-47283247D01*
X31461515Y-47191719D01*
X31950004Y-46704082D01*
X32043051Y-46480000D01*
X33996753Y-46480000D01*
X34088281Y-46701515D01*
X34575918Y-47190004D01*
X35213373Y-47454699D01*
X35903599Y-47455301D01*
X36541515Y-47191719D01*
X37030004Y-46704082D01*
X37294699Y-46066627D01*
X37295301Y-45376401D01*
X37031719Y-44738485D01*
X36544082Y-44249996D01*
X35906627Y-43985301D01*
X35216401Y-43984699D01*
X34578485Y-44248281D01*
X34089996Y-44735918D01*
X33996949Y-44960000D01*
X32043247Y-44960000D01*
X31951719Y-44738485D01*
X31464082Y-44249996D01*
X31240000Y-44156949D01*
X31240000Y-43503795D01*
X31384716Y-43503795D01*
X31633106Y-44104943D01*
X32092637Y-44565278D01*
X32693352Y-44814716D01*
X33343795Y-44815284D01*
X33944943Y-44566894D01*
X34405278Y-44107363D01*
X34654716Y-43506648D01*
X34655284Y-42856205D01*
X34406894Y-42255057D01*
X33947363Y-41794722D01*
X33346648Y-41545284D01*
X32696205Y-41544716D01*
X32095057Y-41793106D01*
X31634722Y-42252637D01*
X31385284Y-42853352D01*
X31384716Y-43503795D01*
X31240000Y-43503795D01*
X31240000Y-42203247D01*
X31461515Y-42111719D01*
X31950004Y-41624082D01*
X32043051Y-41400000D01*
X33996753Y-41400000D01*
X34088281Y-41621515D01*
X34575918Y-42110004D01*
X35213373Y-42374699D01*
X35903599Y-42375301D01*
X36541515Y-42111719D01*
X37030004Y-41624082D01*
X37294699Y-40986627D01*
X37295301Y-40296401D01*
X37031719Y-39658485D01*
X36544082Y-39169996D01*
X36320000Y-39076949D01*
X36320000Y-34604802D01*
X39272401Y-31652401D01*
X39437148Y-31405839D01*
X39495000Y-31115000D01*
X39495000Y-29524802D01*
X40319802Y-28700000D01*
X66754290Y-28700000D01*
X66607852Y-28919161D01*
X66550000Y-29210000D01*
X66550000Y-37299367D01*
X66226799Y-37165162D01*
X65854833Y-37164838D01*
X65511057Y-37306883D01*
X65247808Y-37569673D01*
X65105162Y-37913201D01*
X65105121Y-37960077D01*
X46675198Y-56390000D01*
X31750000Y-56390000D01*
X31459161Y-56447852D01*
X31212599Y-56612599D01*
X29307599Y-58517599D01*
X29142852Y-58764161D01*
X29085000Y-59055000D01*
X29085000Y-71755000D01*
X29142852Y-72045839D01*
X29307599Y-72292401D01*
X29780226Y-72765028D01*
X29779769Y-73289383D01*
X29982582Y-73780229D01*
X30357796Y-74156098D01*
X30692527Y-74295091D01*
X30359771Y-74432582D01*
X29983902Y-74807796D01*
X29780232Y-75298287D01*
X29779769Y-75829383D01*
X29982582Y-76320229D01*
X30357796Y-76696098D01*
X30692527Y-76835091D01*
X30359771Y-76972582D01*
X29983902Y-77347796D01*
X29780232Y-77838287D01*
X29779769Y-78369383D01*
X29982582Y-78860229D01*
X30357796Y-79236098D01*
X30692527Y-79375091D01*
X30359771Y-79512582D01*
X29983902Y-79887796D01*
X29780232Y-80378287D01*
X29779769Y-80909383D01*
X29982582Y-81400229D01*
X30357796Y-81776098D01*
X30692527Y-81915091D01*
X30359771Y-82052582D01*
X29983902Y-82427796D01*
X29780232Y-82918287D01*
X29779769Y-83449383D01*
X29982582Y-83940229D01*
X30357796Y-84316098D01*
X30692527Y-84455091D01*
X30359771Y-84592582D01*
X29983902Y-84967796D01*
X29780232Y-85458287D01*
X29779769Y-85989383D01*
X29982582Y-86480229D01*
X30357796Y-86856098D01*
X30692527Y-86995091D01*
X30359771Y-87132582D01*
X29983902Y-87507796D01*
X29780232Y-87998287D01*
X29779769Y-88529383D01*
X29982582Y-89020229D01*
X30357796Y-89396098D01*
X30692527Y-89535091D01*
X30359771Y-89672582D01*
X29983902Y-90047796D01*
X29780232Y-90538287D01*
X29779769Y-91069383D01*
X29982582Y-91560229D01*
X30357796Y-91936098D01*
X30692527Y-92075091D01*
X30359771Y-92212582D01*
X29983902Y-92587796D01*
X29780232Y-93078287D01*
X29779769Y-93609383D01*
X29982582Y-94100229D01*
X30357796Y-94476098D01*
X30692527Y-94615091D01*
X30359771Y-94752582D01*
X29983902Y-95127796D01*
X29780232Y-95618287D01*
X29779769Y-96149383D01*
X29982582Y-96640229D01*
X30357796Y-97016098D01*
X30692527Y-97155091D01*
X30359771Y-97292582D01*
X29983902Y-97667796D01*
X29780232Y-98158287D01*
X29779769Y-98689383D01*
X29982582Y-99180229D01*
X30357796Y-99556098D01*
X30692527Y-99695091D01*
X30359771Y-99832582D01*
X29983902Y-100207796D01*
X29780232Y-100698287D01*
X29779769Y-101229383D01*
X29982582Y-101720229D01*
X30357796Y-102096098D01*
X30692527Y-102235091D01*
X30359771Y-102372582D01*
X29983902Y-102747796D01*
X29780232Y-103238287D01*
X29779769Y-103769383D01*
X29982582Y-104260229D01*
X30357796Y-104636098D01*
X30848287Y-104839768D01*
X31379383Y-104840231D01*
X31870229Y-104637418D01*
X32246098Y-104262204D01*
X32449768Y-103771713D01*
X32450231Y-103240617D01*
X32247418Y-102749771D01*
X31872204Y-102373902D01*
X31537473Y-102234909D01*
X31870229Y-102097418D01*
X32243297Y-101725000D01*
X32421254Y-101725000D01*
X32320232Y-101968287D01*
X32319769Y-102499383D01*
X32522582Y-102990229D01*
X32897796Y-103366098D01*
X33388287Y-103569768D01*
X33919383Y-103570231D01*
X34410229Y-103367418D01*
X34786098Y-102992204D01*
X34919980Y-102669782D01*
X35022599Y-102772401D01*
X35046933Y-102788661D01*
X34860232Y-103238287D01*
X34859769Y-103769383D01*
X35062582Y-104260229D01*
X35435000Y-104633297D01*
X35435000Y-106680000D01*
X35492852Y-106970839D01*
X35657599Y-107217401D01*
X36292599Y-107852401D01*
X36539161Y-108017148D01*
X36830000Y-108075000D01*
X53025198Y-108075000D01*
X53215000Y-108264802D01*
X53215000Y-120650000D01*
X53272852Y-120940839D01*
X53437599Y-121187401D01*
X56612599Y-124362401D01*
X56859161Y-124527148D01*
X57150000Y-124585000D01*
X96520000Y-124585000D01*
X96810839Y-124527148D01*
X97057401Y-124362401D01*
X98327401Y-123092401D01*
X98492148Y-122845840D01*
X98550000Y-122555000D01*
X98550000Y-121212463D01*
X98582192Y-121180327D01*
X98724838Y-120836799D01*
X98725162Y-120464833D01*
X98583117Y-120121057D01*
X98320327Y-119857808D01*
X97976799Y-119715162D01*
X97604833Y-119714838D01*
X97349570Y-119820310D01*
X97454838Y-119566799D01*
X97455162Y-119194833D01*
X97313117Y-118851057D01*
X97050327Y-118587808D01*
X96706799Y-118445162D01*
X96334833Y-118444838D01*
X95991057Y-118586883D01*
X95727808Y-118849673D01*
X95585162Y-119193201D01*
X95584838Y-119565167D01*
X95690310Y-119820430D01*
X95436799Y-119715162D01*
X95064833Y-119714838D01*
X94721057Y-119856883D01*
X94687882Y-119890000D01*
X94145633Y-119890000D01*
X94279838Y-119566799D01*
X94280162Y-119194833D01*
X94138117Y-118851057D01*
X93875327Y-118587808D01*
X93531799Y-118445162D01*
X93159833Y-118444838D01*
X92816057Y-118586883D01*
X92782882Y-118620000D01*
X60639802Y-118620000D01*
X59815000Y-117795198D01*
X59815000Y-116840000D01*
X166125907Y-116840000D01*
X166238946Y-117408285D01*
X166560853Y-117890054D01*
X167042622Y-118211961D01*
X167610907Y-118325000D01*
X167669093Y-118325000D01*
X168237378Y-118211961D01*
X168719147Y-117890054D01*
X168910000Y-117604422D01*
X169100853Y-117890054D01*
X169582622Y-118211961D01*
X170150907Y-118325000D01*
X170209093Y-118325000D01*
X170777378Y-118211961D01*
X171259147Y-117890054D01*
X171581054Y-117408285D01*
X171694093Y-116840000D01*
X171581054Y-116271715D01*
X171259147Y-115789946D01*
X170918447Y-115562298D01*
X171061358Y-115495183D01*
X171451645Y-115066924D01*
X171621476Y-114656890D01*
X171500155Y-114427000D01*
X170307000Y-114427000D01*
X170307000Y-114447000D01*
X170053000Y-114447000D01*
X170053000Y-114427000D01*
X167767000Y-114427000D01*
X167767000Y-114447000D01*
X167513000Y-114447000D01*
X167513000Y-114427000D01*
X166319845Y-114427000D01*
X166198524Y-114656890D01*
X166368355Y-115066924D01*
X166758642Y-115495183D01*
X166901553Y-115562298D01*
X166560853Y-115789946D01*
X166238946Y-116271715D01*
X166125907Y-116840000D01*
X59815000Y-116840000D01*
X59815000Y-103505000D01*
X59766746Y-103262414D01*
X59757148Y-103214160D01*
X59592401Y-102967599D01*
X57052401Y-100427599D01*
X56805839Y-100262852D01*
X56515000Y-100205000D01*
X39968746Y-100205000D01*
X40069768Y-99961713D01*
X40070231Y-99430617D01*
X39867418Y-98939771D01*
X39492204Y-98563902D01*
X39157473Y-98424909D01*
X39490229Y-98287418D01*
X39866098Y-97912204D01*
X40069768Y-97421713D01*
X40070231Y-96890617D01*
X39968744Y-96645000D01*
X60325000Y-96645000D01*
X60615839Y-96587148D01*
X60862401Y-96422401D01*
X61099680Y-96185122D01*
X61145167Y-96185162D01*
X61488943Y-96043117D01*
X61752192Y-95780327D01*
X61894838Y-95436799D01*
X61895162Y-95064833D01*
X61753117Y-94721057D01*
X61647290Y-94615046D01*
X61752192Y-94510327D01*
X61894838Y-94166799D01*
X61895162Y-93794833D01*
X61753117Y-93451057D01*
X61490327Y-93187808D01*
X61146799Y-93045162D01*
X61099923Y-93045121D01*
X60862401Y-92807599D01*
X60615839Y-92642852D01*
X60325000Y-92585000D01*
X39968746Y-92585000D01*
X40069768Y-92341713D01*
X40070231Y-91810617D01*
X39968744Y-91565000D01*
X48260000Y-91565000D01*
X48550839Y-91507148D01*
X48797401Y-91342401D01*
X51689635Y-88450167D01*
X60659838Y-88450167D01*
X60801883Y-88793943D01*
X61064673Y-89057192D01*
X61408201Y-89199838D01*
X61780167Y-89200162D01*
X62123943Y-89058117D01*
X62157118Y-89025000D01*
X63572537Y-89025000D01*
X63604673Y-89057192D01*
X63948201Y-89199838D01*
X64320167Y-89200162D01*
X64663943Y-89058117D01*
X64927192Y-88795327D01*
X65069838Y-88451799D01*
X65070162Y-88079833D01*
X64928117Y-87736057D01*
X64665327Y-87472808D01*
X64321799Y-87330162D01*
X63949833Y-87329838D01*
X63606057Y-87471883D01*
X63572882Y-87505000D01*
X62157463Y-87505000D01*
X62125327Y-87472808D01*
X61781799Y-87330162D01*
X61409833Y-87329838D01*
X61066057Y-87471883D01*
X60802808Y-87734673D01*
X60660162Y-88078201D01*
X60659838Y-88450167D01*
X51689635Y-88450167D01*
X66179680Y-73960122D01*
X66225167Y-73960162D01*
X66550000Y-73825944D01*
X66550000Y-83257537D01*
X66517808Y-83289673D01*
X66375162Y-83633201D01*
X66374838Y-84005167D01*
X66516883Y-84348943D01*
X66550000Y-84382118D01*
X66550000Y-90877537D01*
X66517808Y-90909673D01*
X66375162Y-91253201D01*
X66374838Y-91625167D01*
X66516883Y-91968943D01*
X66550000Y-92002118D01*
X66550000Y-106117537D01*
X66517808Y-106149673D01*
X66375162Y-106493201D01*
X66374838Y-106865167D01*
X66516883Y-107208943D01*
X66550000Y-107242118D01*
X66550000Y-109054367D01*
X66226799Y-108920162D01*
X65854833Y-108919838D01*
X65511057Y-109061883D01*
X65477882Y-109095000D01*
X62792463Y-109095000D01*
X62760327Y-109062808D01*
X62416799Y-108920162D01*
X62044833Y-108919838D01*
X61701057Y-109061883D01*
X61437808Y-109324673D01*
X61295162Y-109668201D01*
X61294838Y-110040167D01*
X61436883Y-110383943D01*
X61699673Y-110647192D01*
X62043201Y-110789838D01*
X62415167Y-110790162D01*
X62758943Y-110648117D01*
X62792118Y-110615000D01*
X65477537Y-110615000D01*
X65509673Y-110647192D01*
X65853201Y-110789838D01*
X66225167Y-110790162D01*
X66550000Y-110655944D01*
X66550000Y-113737537D01*
X66517808Y-113769673D01*
X66375162Y-114113201D01*
X66374838Y-114485167D01*
X66516883Y-114828943D01*
X66779673Y-115092192D01*
X67123201Y-115234838D01*
X67495167Y-115235162D01*
X67838943Y-115093117D01*
X68102192Y-114830327D01*
X68244838Y-114486799D01*
X68245162Y-114114833D01*
X68103117Y-113771057D01*
X68070000Y-113737882D01*
X68070000Y-107500167D01*
X77374838Y-107500167D01*
X77516883Y-107843943D01*
X77622710Y-107949954D01*
X77517808Y-108054673D01*
X77375162Y-108398201D01*
X77374838Y-108770167D01*
X77516883Y-109113943D01*
X77622710Y-109219954D01*
X77517808Y-109324673D01*
X77375162Y-109668201D01*
X77374838Y-110040167D01*
X77516883Y-110383943D01*
X77622710Y-110489954D01*
X77517808Y-110594673D01*
X77375162Y-110938201D01*
X77374838Y-111310167D01*
X77516883Y-111653943D01*
X77779673Y-111917192D01*
X78123201Y-112059838D01*
X78170077Y-112059879D01*
X82217599Y-116107401D01*
X82464160Y-116272148D01*
X82755000Y-116330000D01*
X163267537Y-116330000D01*
X163299673Y-116362192D01*
X163643201Y-116504838D01*
X164015167Y-116505162D01*
X164358943Y-116363117D01*
X164622192Y-116100327D01*
X164764838Y-115756799D01*
X164765162Y-115384833D01*
X164623117Y-115041057D01*
X164360327Y-114777808D01*
X164016799Y-114635162D01*
X163644833Y-114634838D01*
X163301057Y-114776883D01*
X163267882Y-114810000D01*
X83069802Y-114810000D01*
X79245122Y-110985320D01*
X79245162Y-110939833D01*
X79103117Y-110596057D01*
X78997290Y-110490046D01*
X79102192Y-110385327D01*
X79244838Y-110041799D01*
X79244879Y-109994923D01*
X79259802Y-109980000D01*
X107854890Y-109980000D01*
X107854838Y-110040167D01*
X107996883Y-110383943D01*
X108102710Y-110489954D01*
X107997808Y-110594673D01*
X107855162Y-110938201D01*
X107854838Y-111310167D01*
X107996883Y-111653943D01*
X108259673Y-111917192D01*
X108603201Y-112059838D01*
X108650077Y-112059879D01*
X110157599Y-113567401D01*
X110404161Y-113732148D01*
X110695000Y-113790000D01*
X166261940Y-113790000D01*
X166198524Y-113943110D01*
X166319845Y-114173000D01*
X167513000Y-114173000D01*
X167513000Y-114153000D01*
X167767000Y-114153000D01*
X167767000Y-114173000D01*
X170053000Y-114173000D01*
X170053000Y-114153000D01*
X170307000Y-114153000D01*
X170307000Y-114173000D01*
X171500155Y-114173000D01*
X171621476Y-113943110D01*
X171451645Y-113533076D01*
X171061358Y-113104817D01*
X170918447Y-113037702D01*
X171259147Y-112810054D01*
X171581054Y-112328285D01*
X171694093Y-111760000D01*
X171581054Y-111191715D01*
X171259147Y-110709946D01*
X170929974Y-110490000D01*
X171259147Y-110270054D01*
X171581054Y-109788285D01*
X171694093Y-109220000D01*
X171581054Y-108651715D01*
X171259147Y-108169946D01*
X170929974Y-107950000D01*
X171259147Y-107730054D01*
X171581054Y-107248285D01*
X171694093Y-106680000D01*
X171581054Y-106111715D01*
X171259147Y-105629946D01*
X170929974Y-105410000D01*
X171259147Y-105190054D01*
X171581054Y-104708285D01*
X171694093Y-104140000D01*
X171581054Y-103571715D01*
X171259147Y-103089946D01*
X170940000Y-102876699D01*
X170940000Y-102870000D01*
X170904905Y-102693569D01*
X170882148Y-102579160D01*
X170717401Y-102332599D01*
X169447401Y-101062599D01*
X169200839Y-100897852D01*
X168910000Y-100840000D01*
X135890000Y-100840000D01*
X135647414Y-100888254D01*
X135599160Y-100897852D01*
X135352599Y-101062599D01*
X133210320Y-103204878D01*
X133164833Y-103204838D01*
X132821057Y-103346883D01*
X132557808Y-103609673D01*
X132415162Y-103953201D01*
X132414838Y-104325167D01*
X132549056Y-104650000D01*
X80215000Y-104650000D01*
X79924161Y-104707852D01*
X79677599Y-104872599D01*
X78170320Y-106379878D01*
X78124833Y-106379838D01*
X77781057Y-106521883D01*
X77517808Y-106784673D01*
X77375162Y-107128201D01*
X77374838Y-107500167D01*
X68070000Y-107500167D01*
X68070000Y-107242463D01*
X68102192Y-107210327D01*
X68244838Y-106866799D01*
X68245162Y-106494833D01*
X68103117Y-106151057D01*
X68070000Y-106117882D01*
X68070000Y-100644802D01*
X68894802Y-99820000D01*
X94935198Y-99820000D01*
X96854878Y-101739680D01*
X96854838Y-101785167D01*
X96996883Y-102128943D01*
X97259673Y-102392192D01*
X97603201Y-102534838D01*
X97975167Y-102535162D01*
X98318943Y-102393117D01*
X98582192Y-102130327D01*
X98724838Y-101786799D01*
X98725162Y-101414833D01*
X98583117Y-101071057D01*
X98320327Y-100807808D01*
X97976799Y-100665162D01*
X97929923Y-100665121D01*
X96324802Y-99060000D01*
X98327401Y-97057401D01*
X98492148Y-96810840D01*
X98512843Y-96706799D01*
X98550000Y-96520000D01*
X135645907Y-96520000D01*
X135758946Y-97088285D01*
X136080853Y-97570054D01*
X136562622Y-97891961D01*
X137130907Y-98005000D01*
X137189093Y-98005000D01*
X137757378Y-97891961D01*
X138239147Y-97570054D01*
X138430000Y-97284422D01*
X138620853Y-97570054D01*
X139102622Y-97891961D01*
X139670907Y-98005000D01*
X139729093Y-98005000D01*
X140297378Y-97891961D01*
X140779147Y-97570054D01*
X141101054Y-97088285D01*
X141214093Y-96520000D01*
X141101054Y-95951715D01*
X140779147Y-95469946D01*
X140438447Y-95242298D01*
X140581358Y-95175183D01*
X140971645Y-94746924D01*
X141141476Y-94336890D01*
X141020155Y-94107000D01*
X139827000Y-94107000D01*
X139827000Y-94127000D01*
X139573000Y-94127000D01*
X139573000Y-94107000D01*
X137287000Y-94107000D01*
X137287000Y-94127000D01*
X137033000Y-94127000D01*
X137033000Y-94107000D01*
X135839845Y-94107000D01*
X135718524Y-94336890D01*
X135888355Y-94746924D01*
X136278642Y-95175183D01*
X136421553Y-95242298D01*
X136080853Y-95469946D01*
X135758946Y-95951715D01*
X135645907Y-96520000D01*
X98550000Y-96520000D01*
X98550000Y-93272463D01*
X98582192Y-93240327D01*
X98724838Y-92896799D01*
X98725162Y-92524833D01*
X98590944Y-92200000D01*
X135887046Y-92200000D01*
X136080853Y-92490054D01*
X136421553Y-92717702D01*
X136278642Y-92784817D01*
X135888355Y-93213076D01*
X135718524Y-93623110D01*
X135839845Y-93853000D01*
X137033000Y-93853000D01*
X137033000Y-93833000D01*
X137287000Y-93833000D01*
X137287000Y-93853000D01*
X139573000Y-93853000D01*
X139573000Y-93833000D01*
X139827000Y-93833000D01*
X139827000Y-93853000D01*
X141020155Y-93853000D01*
X141141476Y-93623110D01*
X140971645Y-93213076D01*
X140581358Y-92784817D01*
X140438447Y-92717702D01*
X140779147Y-92490054D01*
X141101054Y-92008285D01*
X141214093Y-91440000D01*
X141101054Y-90871715D01*
X140779147Y-90389946D01*
X140449974Y-90170000D01*
X140779147Y-89950054D01*
X141101054Y-89468285D01*
X141214093Y-88900000D01*
X141101054Y-88331715D01*
X140779147Y-87849946D01*
X140449974Y-87630000D01*
X140779147Y-87410054D01*
X141101054Y-86928285D01*
X141214093Y-86360000D01*
X141101054Y-85791715D01*
X140779147Y-85309946D01*
X140449974Y-85090000D01*
X140779147Y-84870054D01*
X141101054Y-84388285D01*
X141214093Y-83820000D01*
X141101054Y-83251715D01*
X140779147Y-82769946D01*
X140460000Y-82556699D01*
X140460000Y-82550000D01*
X140424905Y-82373569D01*
X140402148Y-82259160D01*
X140237401Y-82012599D01*
X138967401Y-80742599D01*
X138720839Y-80577852D01*
X138430000Y-80520000D01*
X135890000Y-80520000D01*
X135599160Y-80577852D01*
X135352599Y-80742599D01*
X134305198Y-81790000D01*
X113592463Y-81790000D01*
X113560327Y-81757808D01*
X113216799Y-81615162D01*
X112844833Y-81614838D01*
X112501057Y-81756883D01*
X112237808Y-82019673D01*
X112095162Y-82363201D01*
X112094838Y-82735167D01*
X112229056Y-83060000D01*
X78945000Y-83060000D01*
X78654161Y-83117852D01*
X78407599Y-83282599D01*
X78170320Y-83519878D01*
X78124833Y-83519838D01*
X77781057Y-83661883D01*
X77517808Y-83924673D01*
X77375162Y-84268201D01*
X77374838Y-84640167D01*
X77516883Y-84983943D01*
X77622710Y-85089954D01*
X77517808Y-85194673D01*
X77375162Y-85538201D01*
X77374838Y-85910167D01*
X77516883Y-86253943D01*
X77622710Y-86359954D01*
X77517808Y-86464673D01*
X77375162Y-86808201D01*
X77374838Y-87180167D01*
X77516883Y-87523943D01*
X77622710Y-87629954D01*
X77517808Y-87734673D01*
X77375162Y-88078201D01*
X77374838Y-88450167D01*
X77516883Y-88793943D01*
X77779673Y-89057192D01*
X78123201Y-89199838D01*
X78170077Y-89199879D01*
X80920198Y-91950000D01*
X70412463Y-91950000D01*
X70380327Y-91917808D01*
X70036799Y-91775162D01*
X69664833Y-91774838D01*
X69321057Y-91916883D01*
X69057808Y-92179673D01*
X68915162Y-92523201D01*
X68914838Y-92895167D01*
X69056883Y-93238943D01*
X69162710Y-93344954D01*
X69057808Y-93449673D01*
X68915162Y-93793201D01*
X68914838Y-94165167D01*
X69020310Y-94420430D01*
X68766799Y-94315162D01*
X68394833Y-94314838D01*
X68070000Y-94449056D01*
X68070000Y-92002463D01*
X68102192Y-91970327D01*
X68244838Y-91626799D01*
X68245162Y-91254833D01*
X68103117Y-90911057D01*
X68070000Y-90877882D01*
X68070000Y-84382463D01*
X68102192Y-84350327D01*
X68244838Y-84006799D01*
X68245162Y-83634833D01*
X68103117Y-83291057D01*
X68070000Y-83257882D01*
X68070000Y-78290167D01*
X68914838Y-78290167D01*
X69056883Y-78633943D01*
X69319673Y-78897192D01*
X69619332Y-79021622D01*
X69550162Y-79188201D01*
X69549838Y-79560167D01*
X69619432Y-79728597D01*
X69321057Y-79851883D01*
X69057808Y-80114673D01*
X68915162Y-80458201D01*
X68914838Y-80830167D01*
X69056883Y-81173943D01*
X69319673Y-81437192D01*
X69663201Y-81579838D01*
X70035167Y-81580162D01*
X70378943Y-81438117D01*
X70412118Y-81405000D01*
X88337537Y-81405000D01*
X88369673Y-81437192D01*
X88713201Y-81579838D01*
X89085167Y-81580162D01*
X89428943Y-81438117D01*
X89692192Y-81175327D01*
X89834838Y-80831799D01*
X89835162Y-80459833D01*
X89700944Y-80135000D01*
X94687537Y-80135000D01*
X94719673Y-80167192D01*
X95063201Y-80309838D01*
X95435167Y-80310162D01*
X95778943Y-80168117D01*
X96042192Y-79905327D01*
X96184838Y-79561799D01*
X96185162Y-79189833D01*
X96043117Y-78846057D01*
X95780327Y-78582808D01*
X95480668Y-78458378D01*
X95549838Y-78291799D01*
X95550162Y-77919833D01*
X95408117Y-77576057D01*
X95145327Y-77312808D01*
X94801799Y-77170162D01*
X94429833Y-77169838D01*
X94086057Y-77311883D01*
X94052882Y-77345000D01*
X70412463Y-77345000D01*
X70380327Y-77312808D01*
X70036799Y-77170162D01*
X69664833Y-77169838D01*
X69321057Y-77311883D01*
X69057808Y-77574673D01*
X68915162Y-77918201D01*
X68914838Y-78290167D01*
X68070000Y-78290167D01*
X68070000Y-77784802D01*
X68894802Y-76960000D01*
X94935198Y-76960000D01*
X96854878Y-78879680D01*
X96854838Y-78925167D01*
X96996883Y-79268943D01*
X97259673Y-79532192D01*
X97603201Y-79674838D01*
X97975167Y-79675162D01*
X98318943Y-79533117D01*
X98582192Y-79270327D01*
X98724838Y-78926799D01*
X98725162Y-78554833D01*
X98583117Y-78211057D01*
X98320327Y-77947808D01*
X97976799Y-77805162D01*
X97929923Y-77805121D01*
X96324802Y-76200000D01*
X166125907Y-76200000D01*
X166238946Y-76768285D01*
X166560853Y-77250054D01*
X167042622Y-77571961D01*
X167610907Y-77685000D01*
X167669093Y-77685000D01*
X168237378Y-77571961D01*
X168719147Y-77250054D01*
X168910000Y-76964422D01*
X169100853Y-77250054D01*
X169582622Y-77571961D01*
X170150907Y-77685000D01*
X170209093Y-77685000D01*
X170777378Y-77571961D01*
X171259147Y-77250054D01*
X171581054Y-76768285D01*
X171694093Y-76200000D01*
X171581054Y-75631715D01*
X171259147Y-75149946D01*
X170918447Y-74922298D01*
X171061358Y-74855183D01*
X171451645Y-74426924D01*
X171621476Y-74016890D01*
X171500155Y-73787000D01*
X170307000Y-73787000D01*
X170307000Y-73807000D01*
X170053000Y-73807000D01*
X170053000Y-73787000D01*
X167767000Y-73787000D01*
X167767000Y-73807000D01*
X167513000Y-73807000D01*
X167513000Y-73787000D01*
X166319845Y-73787000D01*
X166198524Y-74016890D01*
X166368355Y-74426924D01*
X166758642Y-74855183D01*
X166901553Y-74922298D01*
X166560853Y-75149946D01*
X166238946Y-75631715D01*
X166125907Y-76200000D01*
X96324802Y-76200000D01*
X97929680Y-74595122D01*
X97975167Y-74595162D01*
X98318943Y-74453117D01*
X98582192Y-74190327D01*
X98724838Y-73846799D01*
X98725162Y-73474833D01*
X98583117Y-73131057D01*
X98320327Y-72867808D01*
X98020668Y-72743378D01*
X98089838Y-72576799D01*
X98090162Y-72204833D01*
X97948117Y-71861057D01*
X97762384Y-71675000D01*
X166236303Y-71675000D01*
X166238946Y-71688285D01*
X166560853Y-72170054D01*
X166901553Y-72397702D01*
X166758642Y-72464817D01*
X166368355Y-72893076D01*
X166198524Y-73303110D01*
X166319845Y-73533000D01*
X167513000Y-73533000D01*
X167513000Y-73513000D01*
X167767000Y-73513000D01*
X167767000Y-73533000D01*
X170053000Y-73533000D01*
X170053000Y-73513000D01*
X170307000Y-73513000D01*
X170307000Y-73533000D01*
X171500155Y-73533000D01*
X171621476Y-73303110D01*
X171451645Y-72893076D01*
X171061358Y-72464817D01*
X170918447Y-72397702D01*
X171259147Y-72170054D01*
X171581054Y-71688285D01*
X171694093Y-71120000D01*
X171581054Y-70551715D01*
X171259147Y-70069946D01*
X170929974Y-69850000D01*
X171259147Y-69630054D01*
X171581054Y-69148285D01*
X171694093Y-68580000D01*
X171581054Y-68011715D01*
X171259147Y-67529946D01*
X170929974Y-67310000D01*
X171259147Y-67090054D01*
X171581054Y-66608285D01*
X171694093Y-66040000D01*
X171581054Y-65471715D01*
X171259147Y-64989946D01*
X170929974Y-64770000D01*
X171259147Y-64550054D01*
X171581054Y-64068285D01*
X171694093Y-63500000D01*
X171581054Y-62931715D01*
X171259147Y-62449946D01*
X170940000Y-62236699D01*
X170940000Y-59690000D01*
X170882148Y-59399161D01*
X170882148Y-59399160D01*
X170717401Y-59152599D01*
X169447401Y-57882599D01*
X169200839Y-57717852D01*
X168910000Y-57660000D01*
X113592463Y-57660000D01*
X113560327Y-57627808D01*
X113216799Y-57485162D01*
X112844833Y-57484838D01*
X112501057Y-57626883D01*
X112237808Y-57889673D01*
X112095162Y-58233201D01*
X112094838Y-58605167D01*
X112236883Y-58948943D01*
X112499673Y-59212192D01*
X112843201Y-59354838D01*
X113215167Y-59355162D01*
X113558943Y-59213117D01*
X113592118Y-59180000D01*
X168595198Y-59180000D01*
X169420000Y-60004802D01*
X169420000Y-62236699D01*
X169100853Y-62449946D01*
X169100029Y-62451179D01*
X169093162Y-62414683D01*
X168954090Y-62198559D01*
X168741890Y-62053569D01*
X168490000Y-62002560D01*
X167217362Y-62002560D01*
X165637401Y-60422599D01*
X165390839Y-60257852D01*
X165100000Y-60200000D01*
X78945000Y-60200000D01*
X78654161Y-60257852D01*
X78407599Y-60422599D01*
X78170320Y-60659878D01*
X78124833Y-60659838D01*
X77781057Y-60801883D01*
X77517808Y-61064673D01*
X77375162Y-61408201D01*
X77374838Y-61780167D01*
X77516883Y-62123943D01*
X77622710Y-62229954D01*
X77517808Y-62334673D01*
X77375162Y-62678201D01*
X77374838Y-63050167D01*
X77516883Y-63393943D01*
X77622710Y-63499954D01*
X77517808Y-63604673D01*
X77375162Y-63948201D01*
X77374838Y-64320167D01*
X77516883Y-64663943D01*
X77622710Y-64769954D01*
X77517808Y-64874673D01*
X77375162Y-65218201D01*
X77374838Y-65590167D01*
X77516883Y-65933943D01*
X77779673Y-66197192D01*
X78123201Y-66339838D01*
X78170077Y-66339879D01*
X80847310Y-69017112D01*
X80751057Y-69056883D01*
X80717882Y-69090000D01*
X70485000Y-69090000D01*
X70194161Y-69147852D01*
X69947599Y-69312599D01*
X69710320Y-69549878D01*
X69664833Y-69549838D01*
X69321057Y-69691883D01*
X69057808Y-69954673D01*
X68915162Y-70298201D01*
X68914838Y-70670167D01*
X69056883Y-71013943D01*
X69319673Y-71277192D01*
X69619332Y-71401622D01*
X69583235Y-71488554D01*
X69321057Y-71596883D01*
X69057808Y-71859673D01*
X68915162Y-72203201D01*
X68914838Y-72575167D01*
X69056883Y-72918943D01*
X69162710Y-73024954D01*
X69057808Y-73129673D01*
X68915162Y-73473201D01*
X68914838Y-73845167D01*
X69056883Y-74188943D01*
X69162710Y-74294954D01*
X69057808Y-74399673D01*
X68915162Y-74743201D01*
X68914838Y-75115167D01*
X69049056Y-75440000D01*
X68580000Y-75440000D01*
X68289160Y-75497852D01*
X68070000Y-75644290D01*
X68070000Y-69142463D01*
X68102192Y-69110327D01*
X68244838Y-68766799D01*
X68245162Y-68394833D01*
X68103117Y-68051057D01*
X68070000Y-68017882D01*
X68070000Y-61522463D01*
X68102192Y-61490327D01*
X68244838Y-61146799D01*
X68245162Y-60774833D01*
X68103117Y-60431057D01*
X68070000Y-60397882D01*
X68070000Y-54924802D01*
X68894802Y-54100000D01*
X94935198Y-54100000D01*
X96854878Y-56019680D01*
X96854838Y-56065167D01*
X96996883Y-56408943D01*
X97259673Y-56672192D01*
X97603201Y-56814838D01*
X97975167Y-56815162D01*
X98318943Y-56673117D01*
X98582192Y-56410327D01*
X98724838Y-56066799D01*
X98725000Y-55880000D01*
X135645907Y-55880000D01*
X135758946Y-56448285D01*
X136080853Y-56930054D01*
X136562622Y-57251961D01*
X137130907Y-57365000D01*
X137189093Y-57365000D01*
X137757378Y-57251961D01*
X138239147Y-56930054D01*
X138430000Y-56644422D01*
X138620853Y-56930054D01*
X139102622Y-57251961D01*
X139670907Y-57365000D01*
X139729093Y-57365000D01*
X140297378Y-57251961D01*
X140779147Y-56930054D01*
X141101054Y-56448285D01*
X141214093Y-55880000D01*
X141101054Y-55311715D01*
X140779147Y-54829946D01*
X140438447Y-54602298D01*
X140581358Y-54535183D01*
X140971645Y-54106924D01*
X141141476Y-53696890D01*
X141020155Y-53467000D01*
X139827000Y-53467000D01*
X139827000Y-53487000D01*
X139573000Y-53487000D01*
X139573000Y-53467000D01*
X137287000Y-53467000D01*
X137287000Y-53487000D01*
X137033000Y-53487000D01*
X137033000Y-53467000D01*
X135839845Y-53467000D01*
X135718524Y-53696890D01*
X135888355Y-54106924D01*
X136278642Y-54535183D01*
X136421553Y-54602298D01*
X136080853Y-54829946D01*
X135758946Y-55311715D01*
X135645907Y-55880000D01*
X98725000Y-55880000D01*
X98725162Y-55694833D01*
X98583117Y-55351057D01*
X98320327Y-55087808D01*
X97976799Y-54945162D01*
X97929923Y-54945121D01*
X96940388Y-53955586D01*
X97057401Y-53877401D01*
X97929680Y-53005122D01*
X97975167Y-53005162D01*
X98318943Y-52863117D01*
X98582192Y-52600327D01*
X98724838Y-52256799D01*
X98725162Y-51884833D01*
X98590944Y-51560000D01*
X135887046Y-51560000D01*
X136080853Y-51850054D01*
X136421553Y-52077702D01*
X136278642Y-52144817D01*
X135888355Y-52573076D01*
X135718524Y-52983110D01*
X135839845Y-53213000D01*
X137033000Y-53213000D01*
X137033000Y-53193000D01*
X137287000Y-53193000D01*
X137287000Y-53213000D01*
X139573000Y-53213000D01*
X139573000Y-53193000D01*
X139827000Y-53193000D01*
X139827000Y-53213000D01*
X141020155Y-53213000D01*
X141141476Y-52983110D01*
X140971645Y-52573076D01*
X140581358Y-52144817D01*
X140438447Y-52077702D01*
X140779147Y-51850054D01*
X141101054Y-51368285D01*
X141214093Y-50800000D01*
X141101054Y-50231715D01*
X140779147Y-49749946D01*
X140449974Y-49530000D01*
X140779147Y-49310054D01*
X141101054Y-48828285D01*
X141214093Y-48260000D01*
X141101054Y-47691715D01*
X140779147Y-47209946D01*
X140449974Y-46990000D01*
X140779147Y-46770054D01*
X141101054Y-46288285D01*
X141214093Y-45720000D01*
X141101054Y-45151715D01*
X140779147Y-44669946D01*
X140449974Y-44450000D01*
X140779147Y-44230054D01*
X141101054Y-43748285D01*
X141214093Y-43180000D01*
X141101054Y-42611715D01*
X140779147Y-42129946D01*
X140460000Y-41916699D01*
X140460000Y-38621834D01*
X154844543Y-38621834D01*
X155244853Y-39590658D01*
X155985443Y-40332542D01*
X156953567Y-40734542D01*
X158001834Y-40735457D01*
X158970658Y-40335147D01*
X159331412Y-39975022D01*
X161784584Y-39975022D01*
X162005353Y-40345743D01*
X162977012Y-40739119D01*
X164025247Y-40730713D01*
X164954647Y-40345743D01*
X165175416Y-39975022D01*
X163480000Y-38279605D01*
X161784584Y-39975022D01*
X159331412Y-39975022D01*
X159712542Y-39594557D01*
X160114542Y-38626433D01*
X160115440Y-37597012D01*
X160840881Y-37597012D01*
X160849287Y-38645247D01*
X161234257Y-39574647D01*
X161604978Y-39795416D01*
X163300395Y-38100000D01*
X163659605Y-38100000D01*
X165355022Y-39795416D01*
X165725743Y-39574647D01*
X166119119Y-38602988D01*
X166110713Y-37554753D01*
X165725743Y-36625353D01*
X165355022Y-36404584D01*
X163659605Y-38100000D01*
X163300395Y-38100000D01*
X161604978Y-36404584D01*
X161234257Y-36625353D01*
X160840881Y-37597012D01*
X160115440Y-37597012D01*
X160115457Y-37578166D01*
X159715147Y-36609342D01*
X159331454Y-36224978D01*
X161784584Y-36224978D01*
X163480000Y-37920395D01*
X165175416Y-36224978D01*
X164954647Y-35854257D01*
X163982988Y-35460881D01*
X162934753Y-35469287D01*
X162005353Y-35854257D01*
X161784584Y-36224978D01*
X159331454Y-36224978D01*
X158974557Y-35867458D01*
X158006433Y-35465458D01*
X156958166Y-35464543D01*
X155989342Y-35864853D01*
X155247458Y-36605443D01*
X154845458Y-37573567D01*
X154844543Y-38621834D01*
X140460000Y-38621834D01*
X140460000Y-36830000D01*
X140416108Y-36609342D01*
X140402148Y-36539160D01*
X140237401Y-36292599D01*
X138967401Y-35022599D01*
X138720839Y-34857852D01*
X138430000Y-34800000D01*
X109425000Y-34800000D01*
X109134161Y-34857852D01*
X108887599Y-35022599D01*
X108650320Y-35259878D01*
X108604833Y-35259838D01*
X108261057Y-35401883D01*
X107997808Y-35664673D01*
X107855162Y-36008201D01*
X107854838Y-36380167D01*
X107996883Y-36723943D01*
X108102710Y-36829954D01*
X107997808Y-36934673D01*
X107855162Y-37278201D01*
X107854838Y-37650167D01*
X107996883Y-37993943D01*
X108102710Y-38099954D01*
X107997808Y-38204673D01*
X107855162Y-38548201D01*
X107854838Y-38920167D01*
X107996883Y-39263943D01*
X108102710Y-39369954D01*
X107997808Y-39474673D01*
X107855162Y-39818201D01*
X107854838Y-40190167D01*
X107996883Y-40533943D01*
X108259673Y-40797192D01*
X108603201Y-40939838D01*
X108650077Y-40939879D01*
X108887599Y-41177401D01*
X109134161Y-41342148D01*
X109425000Y-41400000D01*
X129225198Y-41400000D01*
X130050000Y-42224802D01*
X130050000Y-48260000D01*
X130107852Y-48550839D01*
X130272599Y-48797401D01*
X131515198Y-50040000D01*
X82864802Y-50040000D01*
X82040000Y-49215198D01*
X82040000Y-47554802D01*
X83282599Y-48797401D01*
X83529160Y-48962148D01*
X83820000Y-49020000D01*
X127707537Y-49020000D01*
X127739673Y-49052192D01*
X128083201Y-49194838D01*
X128455167Y-49195162D01*
X128798943Y-49053117D01*
X129062192Y-48790327D01*
X129204838Y-48446799D01*
X129205162Y-48074833D01*
X129063117Y-47731057D01*
X128800327Y-47467808D01*
X128456799Y-47325162D01*
X128084833Y-47324838D01*
X127741057Y-47466883D01*
X127707882Y-47500000D01*
X84134802Y-47500000D01*
X83310000Y-46675198D01*
X83310000Y-45014802D01*
X84552599Y-46257401D01*
X84799160Y-46422148D01*
X85090000Y-46480000D01*
X127707537Y-46480000D01*
X127739673Y-46512192D01*
X128083201Y-46654838D01*
X128455167Y-46655162D01*
X128798943Y-46513117D01*
X129062192Y-46250327D01*
X129204838Y-45906799D01*
X129205162Y-45534833D01*
X129063117Y-45191057D01*
X128800327Y-44927808D01*
X128456799Y-44785162D01*
X128084833Y-44784838D01*
X127741057Y-44926883D01*
X127707882Y-44960000D01*
X85404802Y-44960000D01*
X84580000Y-44135198D01*
X84580000Y-43530710D01*
X84799161Y-43677148D01*
X85090000Y-43735000D01*
X127502895Y-43735000D01*
X127739673Y-43972192D01*
X128083201Y-44114838D01*
X128455167Y-44115162D01*
X128798943Y-43973117D01*
X129062192Y-43710327D01*
X129204838Y-43366799D01*
X129205162Y-42994833D01*
X129063117Y-42651057D01*
X128800327Y-42387808D01*
X128456799Y-42245162D01*
X128215577Y-42244952D01*
X128065000Y-42215000D01*
X85404802Y-42215000D01*
X79245122Y-36055320D01*
X79245162Y-36009833D01*
X79103117Y-35666057D01*
X78840327Y-35402808D01*
X78496799Y-35260162D01*
X78124833Y-35259838D01*
X77781057Y-35401883D01*
X77517808Y-35664673D01*
X77375162Y-36008201D01*
X77374838Y-36380167D01*
X77516883Y-36723943D01*
X77622710Y-36829954D01*
X77517808Y-36934673D01*
X77375162Y-37278201D01*
X77374838Y-37650167D01*
X77516883Y-37993943D01*
X77622710Y-38099954D01*
X77517808Y-38204673D01*
X77375162Y-38548201D01*
X77374838Y-38920167D01*
X77516883Y-39263943D01*
X77622710Y-39369954D01*
X77517808Y-39474673D01*
X77375162Y-39818201D01*
X77374838Y-40190167D01*
X77516883Y-40533943D01*
X77779673Y-40797192D01*
X78123201Y-40939838D01*
X78170077Y-40939879D01*
X80520000Y-43289802D01*
X80520000Y-49530000D01*
X80577852Y-49820839D01*
X80742599Y-50067401D01*
X82012599Y-51337401D01*
X82259160Y-51502148D01*
X82550000Y-51560000D01*
X96989367Y-51560000D01*
X96855162Y-51883201D01*
X96855121Y-51930077D01*
X96205198Y-52580000D01*
X68580000Y-52580000D01*
X68289160Y-52637852D01*
X68070000Y-52784290D01*
X68070000Y-43742463D01*
X68102192Y-43710327D01*
X68244838Y-43366799D01*
X68245162Y-42994833D01*
X68103117Y-42651057D01*
X68070000Y-42617882D01*
X68070000Y-36320000D01*
X68375000Y-36320000D01*
X68665839Y-36262148D01*
X68912401Y-36097401D01*
X69149680Y-35860122D01*
X69195167Y-35860162D01*
X69538943Y-35718117D01*
X69802192Y-35455327D01*
X69944838Y-35111799D01*
X69945162Y-34739833D01*
X69803117Y-34396057D01*
X69697290Y-34290046D01*
X69802192Y-34185327D01*
X69876172Y-34007164D01*
X69917148Y-33945839D01*
X69931411Y-33874135D01*
X69944838Y-33841799D01*
X69944869Y-33806479D01*
X69975000Y-33655000D01*
X69945132Y-33504842D01*
X69945162Y-33469833D01*
X69931675Y-33437191D01*
X69917148Y-33364161D01*
X69876142Y-33302790D01*
X69803117Y-33126057D01*
X69540327Y-32862808D01*
X69196799Y-32720162D01*
X68824833Y-32719838D01*
X68481057Y-32861883D01*
X68217808Y-33124673D01*
X68075162Y-33468201D01*
X68074838Y-33840167D01*
X68216883Y-34183943D01*
X68322710Y-34289954D01*
X68217808Y-34394673D01*
X68075162Y-34738201D01*
X68075121Y-34785077D01*
X68070000Y-34790198D01*
X68070000Y-29524802D01*
X68894802Y-28700000D01*
X94935198Y-28700000D01*
X95760000Y-29524802D01*
X95760000Y-33727537D01*
X95727808Y-33759673D01*
X95585162Y-34103201D01*
X95584838Y-34475167D01*
X95726883Y-34818943D01*
X95989673Y-35082192D01*
X96333201Y-35224838D01*
X96705167Y-35225162D01*
X97048943Y-35083117D01*
X97312192Y-34820327D01*
X97454838Y-34476799D01*
X97455162Y-34104833D01*
X97379549Y-33921834D01*
X157844543Y-33921834D01*
X158244853Y-34890658D01*
X158985443Y-35632542D01*
X159953567Y-36034542D01*
X161001834Y-36035457D01*
X161970658Y-35635147D01*
X162712542Y-34894557D01*
X163114542Y-33926433D01*
X163115457Y-32878166D01*
X162715147Y-31909342D01*
X161974557Y-31167458D01*
X161006433Y-30765458D01*
X159958166Y-30764543D01*
X158989342Y-31164853D01*
X158247458Y-31905443D01*
X157845458Y-32873567D01*
X157844543Y-33921834D01*
X97379549Y-33921834D01*
X97313117Y-33761057D01*
X97280000Y-33727882D01*
X97280000Y-29210000D01*
X97222148Y-28919161D01*
X97222148Y-28919160D01*
X97057401Y-28672599D01*
X95787401Y-27402599D01*
X95540839Y-27237852D01*
X95250000Y-27180000D01*
X40005000Y-27180000D01*
X39714160Y-27237852D01*
X39467599Y-27402599D01*
X38197599Y-28672599D01*
X38032852Y-28919161D01*
X37975000Y-29210000D01*
X37975000Y-30800198D01*
X35022599Y-33752599D01*
X34857852Y-33999161D01*
X34800000Y-34290000D01*
X34800000Y-39076753D01*
X34578485Y-39168281D01*
X34089996Y-39655918D01*
X33996949Y-39880000D01*
X32043247Y-39880000D01*
X31951719Y-39658485D01*
X31464082Y-39169996D01*
X30826627Y-38905301D01*
X30136401Y-38904699D01*
X29498485Y-39168281D01*
X29009996Y-39655918D01*
X28745301Y-40293373D01*
X28744699Y-40983599D01*
X27380000Y-40983599D01*
X27380000Y-39029092D01*
X29712043Y-36697048D01*
X29712046Y-36697046D01*
X29865954Y-36466705D01*
X29920000Y-36195000D01*
X29920000Y-32143109D01*
X31034657Y-32143109D01*
X31336218Y-32872943D01*
X31894120Y-33431819D01*
X32623427Y-33734654D01*
X33413109Y-33735343D01*
X34142943Y-33433782D01*
X34701819Y-32875880D01*
X35004654Y-32146573D01*
X35005343Y-31356891D01*
X34703782Y-30627057D01*
X34145880Y-30068181D01*
X33416573Y-29765346D01*
X32626891Y-29764657D01*
X31897057Y-30066218D01*
X31338181Y-30624120D01*
X31035346Y-31353427D01*
X31034657Y-32143109D01*
X29920000Y-32143109D01*
X29920000Y-28234092D01*
X31409092Y-26745000D01*
X174330908Y-26745000D01*
X175820000Y-28234092D01*
M02*
