G04 #@! TF.FileFunction,Soldermask,Top*
%FSLAX46Y46*%
G04 Gerber Fmt 4.6, Leading zero omitted, Abs format (unit mm)*
G04 Created by KiCad (PCBNEW 4.0.7) date 09/14/18 18:18:36*
%MOMM*%
%LPD*%
G01*
G04 APERTURE LIST*
%ADD10C,0.100000*%
%ADD11C,2.700000*%
%ADD12R,2.000000X1.600000*%
%ADD13R,1.500000X1.300000*%
%ADD14R,1.700000X1.700000*%
%ADD15O,1.700000X1.700000*%
%ADD16R,1.500000X0.600000*%
%ADD17R,2.200000X1.200000*%
%ADD18R,6.400000X5.800000*%
G04 APERTURE END LIST*
D10*
D11*
X76200000Y-151130000D03*
D12*
X148685000Y-151130000D03*
X144685000Y-151130000D03*
X133890000Y-140970000D03*
X137890000Y-140970000D03*
X133890000Y-151130000D03*
X137890000Y-151130000D03*
X156305000Y-151130000D03*
X152305000Y-151130000D03*
D13*
X83105000Y-118110000D03*
X85805000Y-118110000D03*
X83105000Y-120015000D03*
X85805000Y-120015000D03*
X83105000Y-121920000D03*
X85805000Y-121920000D03*
X83105000Y-123825000D03*
X85805000Y-123825000D03*
X83105000Y-130175000D03*
X85805000Y-130175000D03*
X83105000Y-132080000D03*
X85805000Y-132080000D03*
X83105000Y-133985000D03*
X85805000Y-133985000D03*
X83105000Y-135890000D03*
X85805000Y-135890000D03*
D14*
X84455000Y-147955000D03*
D15*
X84455000Y-145415000D03*
X86995000Y-147955000D03*
X86995000Y-145415000D03*
X89535000Y-147955000D03*
X89535000Y-145415000D03*
X92075000Y-147955000D03*
X92075000Y-145415000D03*
X94615000Y-147955000D03*
X94615000Y-145415000D03*
X97155000Y-147955000D03*
X97155000Y-145415000D03*
D16*
X112235000Y-116840000D03*
X112235000Y-118110000D03*
X112235000Y-119380000D03*
X112235000Y-120650000D03*
X112235000Y-121920000D03*
X112235000Y-123190000D03*
X112235000Y-124460000D03*
X112235000Y-125730000D03*
X117635000Y-125730000D03*
X117635000Y-124460000D03*
X117635000Y-123190000D03*
X117635000Y-121920000D03*
X117635000Y-120650000D03*
X117635000Y-119380000D03*
X117635000Y-118110000D03*
X117635000Y-116840000D03*
X112235000Y-128905000D03*
X112235000Y-130175000D03*
X112235000Y-131445000D03*
X112235000Y-132715000D03*
X112235000Y-133985000D03*
X112235000Y-135255000D03*
X112235000Y-136525000D03*
X112235000Y-137795000D03*
X117635000Y-137795000D03*
X117635000Y-136525000D03*
X117635000Y-135255000D03*
X117635000Y-133985000D03*
X117635000Y-132715000D03*
X117635000Y-131445000D03*
X117635000Y-130175000D03*
X117635000Y-128905000D03*
D14*
X126365000Y-117475000D03*
D15*
X126365000Y-114935000D03*
X128905000Y-117475000D03*
X128905000Y-114935000D03*
X131445000Y-117475000D03*
X131445000Y-114935000D03*
X133985000Y-117475000D03*
X133985000Y-114935000D03*
X136525000Y-117475000D03*
X136525000Y-114935000D03*
X139065000Y-117475000D03*
X139065000Y-114935000D03*
X141605000Y-117475000D03*
X141605000Y-114935000D03*
X144145000Y-117475000D03*
X144145000Y-114935000D03*
X146685000Y-117475000D03*
X146685000Y-114935000D03*
X149225000Y-117475000D03*
X149225000Y-114935000D03*
X151765000Y-117475000D03*
X151765000Y-114935000D03*
X154305000Y-117475000D03*
X154305000Y-114935000D03*
X156845000Y-117475000D03*
X156845000Y-114935000D03*
X159385000Y-117475000D03*
X159385000Y-114935000D03*
X161925000Y-117475000D03*
X161925000Y-114935000D03*
D13*
X78025000Y-118110000D03*
X80725000Y-118110000D03*
X78025000Y-120015000D03*
X80725000Y-120015000D03*
X78025000Y-121920000D03*
X80725000Y-121920000D03*
X78025000Y-123825000D03*
X80725000Y-123825000D03*
X78025000Y-130175000D03*
X80725000Y-130175000D03*
X78025000Y-132080000D03*
X80725000Y-132080000D03*
X78025000Y-133985000D03*
X80725000Y-133985000D03*
X78025000Y-135890000D03*
X80725000Y-135890000D03*
X94535000Y-118110000D03*
X97235000Y-118110000D03*
X99615000Y-118110000D03*
X102315000Y-118110000D03*
X94535000Y-130175000D03*
X97235000Y-130175000D03*
X99615000Y-130175000D03*
X102315000Y-130175000D03*
X94535000Y-120015000D03*
X97235000Y-120015000D03*
X99615000Y-120015000D03*
X102315000Y-120015000D03*
X94535000Y-132080000D03*
X97235000Y-132080000D03*
X99615000Y-132080000D03*
X102315000Y-132080000D03*
X94535000Y-121920000D03*
X97235000Y-121920000D03*
X99615000Y-121920000D03*
X102315000Y-121920000D03*
X94535000Y-133985000D03*
X97235000Y-133985000D03*
X99615000Y-133985000D03*
X102315000Y-133985000D03*
X94535000Y-123825000D03*
X97235000Y-123825000D03*
X99615000Y-123825000D03*
X102315000Y-123825000D03*
X94535000Y-135890000D03*
X97235000Y-135890000D03*
X99615000Y-135890000D03*
X102315000Y-135890000D03*
D17*
X133595000Y-143770000D03*
X133595000Y-148330000D03*
D18*
X139895000Y-146050000D03*
D17*
X148835000Y-143770000D03*
X148835000Y-148330000D03*
D18*
X155135000Y-146050000D03*
D12*
X120555000Y-128270000D03*
X124555000Y-128270000D03*
X120110000Y-114300000D03*
X116110000Y-114300000D03*
D11*
X163830000Y-151130000D03*
M02*
