M48
;DRILL file {KiCad 4.0.7} date 09/14/18 18:16:36
;FORMAT={-:-/ absolute / inch / decimal}
FMAT,2
INCH,TZ
T1C0.016
T2C0.039
%
G90
G05
M72
T1
X3.0719Y-4.725
X3.0719Y-4.875
X3.0719Y-5.2
X3.0719Y-5.35
X3.075Y-4.65
X3.075Y-4.8
X3.075Y-5.125
X3.075Y-5.275
X3.325Y-4.55
X3.375Y-5.125
X3.475Y-5.225
X3.5Y-4.75
X3.5Y-5.6
X3.575Y-4.825
X3.625Y-4.975
X3.65Y-5.3
X3.65Y-5.6
X3.9219Y-4.65
X3.9219Y-4.725
X3.9219Y-4.8
X3.9219Y-4.875
X3.9219Y-5.125
X3.9219Y-5.2
X3.9219Y-5.275
X3.9219Y-5.35
X4.125Y-4.725
X4.175Y-5.2
X4.325Y-4.35
X4.325Y-4.4
X4.425Y-4.6
X4.425Y-4.7
X4.425Y-5.075
X4.475Y-5.15
X4.475Y-5.325
X4.5Y-5.075
X4.5Y-5.25
X4.55Y-4.75
X4.55Y-4.8
X4.55Y-4.875
X4.55Y-5.35
X4.575Y-5.2
X4.7Y-4.625
X4.7Y-4.8
X4.7Y-4.85
X4.7Y-4.9
X4.81Y-5.36
X4.92Y-5.36
X5.03Y-5.36
X5.325Y-5.85
X5.8Y-5.175
X5.95Y-5.225
X5.975Y-5.4
X6.025Y-5.45
X6.3Y-5.55
T2
X3.325Y-5.725
X3.325Y-5.825
X3.425Y-5.725
X3.425Y-5.825
X3.525Y-5.725
X3.525Y-5.825
X3.625Y-5.725
X3.625Y-5.825
X3.725Y-5.725
X3.725Y-5.825
X3.825Y-5.725
X3.825Y-5.825
X4.975Y-4.525
X4.975Y-4.625
X5.075Y-4.525
X5.075Y-4.625
X5.175Y-4.525
X5.175Y-4.625
X5.275Y-4.525
X5.275Y-4.625
X5.375Y-4.525
X5.375Y-4.625
X5.475Y-4.525
X5.475Y-4.625
X5.575Y-4.525
X5.575Y-4.625
X5.675Y-4.525
X5.675Y-4.625
X5.775Y-4.525
X5.775Y-4.625
X5.875Y-4.525
X5.875Y-4.625
X5.975Y-4.525
X5.975Y-4.625
X6.075Y-4.525
X6.075Y-4.625
X6.175Y-4.525
X6.175Y-4.625
X6.275Y-4.525
X6.275Y-4.625
X6.375Y-4.525
X6.375Y-4.625
T0
M30
