G04 #@! TF.FileFunction,Legend,Top*
%FSLAX46Y46*%
G04 Gerber Fmt 4.6, Leading zero omitted, Abs format (unit mm)*
G04 Created by KiCad (PCBNEW 4.0.7) date 05/14/18 11:13:13*
%MOMM*%
%LPD*%
G01*
G04 APERTURE LIST*
%ADD10C,0.100000*%
%ADD11C,0.120000*%
%ADD12C,0.150000*%
G04 APERTURE END LIST*
D10*
D11*
X145280000Y-99480000D02*
X144280000Y-99480000D01*
X144280000Y-101180000D02*
X145280000Y-101180000D01*
X147380000Y-105470000D02*
X147380000Y-102810000D01*
X144780000Y-105470000D02*
X147380000Y-105470000D01*
X144780000Y-102810000D02*
X147380000Y-102810000D01*
X144780000Y-105470000D02*
X144780000Y-102810000D01*
X143510000Y-105470000D02*
X142180000Y-105470000D01*
X142180000Y-105470000D02*
X142180000Y-104140000D01*
D12*
X144613334Y-98937143D02*
X144565715Y-98984762D01*
X144422858Y-99032381D01*
X144327620Y-99032381D01*
X144184762Y-98984762D01*
X144089524Y-98889524D01*
X144041905Y-98794286D01*
X143994286Y-98603810D01*
X143994286Y-98460952D01*
X144041905Y-98270476D01*
X144089524Y-98175238D01*
X144184762Y-98080000D01*
X144327620Y-98032381D01*
X144422858Y-98032381D01*
X144565715Y-98080000D01*
X144613334Y-98127619D01*
X145565715Y-99032381D02*
X144994286Y-99032381D01*
X145280000Y-99032381D02*
X145280000Y-98032381D01*
X145184762Y-98175238D01*
X145089524Y-98270476D01*
X144994286Y-98318095D01*
X140632381Y-104473333D02*
X141346667Y-104473333D01*
X141489524Y-104520953D01*
X141584762Y-104616191D01*
X141632381Y-104759048D01*
X141632381Y-104854286D01*
X141632381Y-103473333D02*
X141632381Y-104044762D01*
X141632381Y-103759048D02*
X140632381Y-103759048D01*
X140775238Y-103854286D01*
X140870476Y-103949524D01*
X140918095Y-104044762D01*
M02*
