G04 #@! TF.FileFunction,Copper,L1,Top,Signal*
%FSLAX46Y46*%
G04 Gerber Fmt 4.6, Leading zero omitted, Abs format (unit mm)*
G04 Created by KiCad (PCBNEW 4.0.7) date 05/14/18 11:13:13*
%MOMM*%
%LPD*%
G01*
G04 APERTURE LIST*
%ADD10C,0.100000*%
%ADD11R,1.500000X1.250000*%
%ADD12R,1.700000X1.700000*%
%ADD13O,1.700000X1.700000*%
%ADD14C,1.500000*%
%ADD15C,1.500000*%
%ADD16C,0.250000*%
%ADD17C,0.254000*%
G04 APERTURE END LIST*
D10*
D11*
X143530000Y-100330000D03*
X146030000Y-100330000D03*
D12*
X143510000Y-104140000D03*
D13*
X146050000Y-104140000D03*
D14*
X143510000Y-85090000D03*
X146050000Y-85090000D03*
D15*
X143530000Y-100330000D02*
X143530000Y-85110000D01*
X143530000Y-85110000D02*
X143510000Y-85090000D01*
X143510000Y-104140000D02*
X143510000Y-100350000D01*
X143510000Y-100350000D02*
X143530000Y-100330000D01*
D16*
X143510000Y-100350000D02*
X143530000Y-100330000D01*
D15*
X146030000Y-100330000D02*
X146030000Y-85110000D01*
X146030000Y-85110000D02*
X146050000Y-85090000D01*
X146050000Y-104140000D02*
X146050000Y-100350000D01*
X146050000Y-100350000D02*
X146030000Y-100330000D01*
D17*
G36*
X142113000Y-93218000D02*
X137870000Y-93218000D01*
X137870000Y-90932000D01*
X142113000Y-90932000D01*
X142113000Y-93218000D01*
X142113000Y-93218000D01*
G37*
X142113000Y-93218000D02*
X137870000Y-93218000D01*
X137870000Y-90932000D01*
X142113000Y-90932000D01*
X142113000Y-93218000D01*
G36*
X151690000Y-93218000D02*
X147447000Y-93218000D01*
X147447000Y-90932000D01*
X151690000Y-90932000D01*
X151690000Y-93218000D01*
X151690000Y-93218000D01*
G37*
X151690000Y-93218000D02*
X147447000Y-93218000D01*
X147447000Y-90932000D01*
X151690000Y-90932000D01*
X151690000Y-93218000D01*
G36*
X136666329Y-108830462D02*
X136841751Y-109093000D01*
X136652000Y-109093000D01*
X136652000Y-108795868D01*
X136666329Y-108830462D01*
X136666329Y-108830462D01*
G37*
X136666329Y-108830462D02*
X136841751Y-109093000D01*
X136652000Y-109093000D01*
X136652000Y-108795868D01*
X136666329Y-108830462D01*
G36*
X152908000Y-109093000D02*
X152718249Y-109093000D01*
X152893671Y-108830463D01*
X152908000Y-108795870D01*
X152908000Y-109093000D01*
X152908000Y-109093000D01*
G37*
X152908000Y-109093000D02*
X152718249Y-109093000D01*
X152893671Y-108830463D01*
X152908000Y-108795870D01*
X152908000Y-109093000D01*
G36*
X151690000Y-107880069D02*
X151634521Y-108158981D01*
X151516145Y-108336144D01*
X151338979Y-108454522D01*
X151060070Y-108510000D01*
X138499931Y-108510000D01*
X138221019Y-108454521D01*
X138043856Y-108336145D01*
X137925478Y-108158979D01*
X137870000Y-107880070D01*
X137870000Y-106807000D01*
X151690000Y-106807000D01*
X151690000Y-107880069D01*
X151690000Y-107880069D01*
G37*
X151690000Y-107880069D02*
X151634521Y-108158981D01*
X151516145Y-108336144D01*
X151338979Y-108454522D01*
X151060070Y-108510000D01*
X138499931Y-108510000D01*
X138221019Y-108454521D01*
X138043856Y-108336145D01*
X137925478Y-108158979D01*
X137870000Y-107880070D01*
X137870000Y-106807000D01*
X151690000Y-106807000D01*
X151690000Y-107880069D01*
G36*
X148087954Y-84322046D02*
X148318295Y-84475954D01*
X148590000Y-84530000D01*
X151060070Y-84530000D01*
X151338979Y-84585478D01*
X151516145Y-84703856D01*
X151634521Y-84881019D01*
X151690000Y-85159931D01*
X151690000Y-90043000D01*
X146685000Y-90043000D01*
X146635590Y-90053006D01*
X146593965Y-90081447D01*
X146566685Y-90123841D01*
X146558000Y-90170000D01*
X146558000Y-93980000D01*
X146568006Y-94029410D01*
X146596447Y-94071035D01*
X146638841Y-94098315D01*
X146685000Y-94107000D01*
X151690000Y-94107000D01*
X151690000Y-101473000D01*
X147160025Y-101473000D01*
X147318327Y-101314699D01*
X147415000Y-101081310D01*
X147415000Y-100615750D01*
X147256250Y-100457000D01*
X146157000Y-100457000D01*
X146157000Y-100477000D01*
X145903000Y-100477000D01*
X145903000Y-100457000D01*
X145883000Y-100457000D01*
X145883000Y-100203000D01*
X145903000Y-100203000D01*
X145903000Y-99228750D01*
X146157000Y-99228750D01*
X146157000Y-100203000D01*
X147256250Y-100203000D01*
X147415000Y-100044250D01*
X147415000Y-99722120D01*
X148143481Y-100024611D01*
X149032619Y-100025387D01*
X149854372Y-99685845D01*
X150483636Y-99057679D01*
X150824611Y-98236519D01*
X150825387Y-97347381D01*
X150485845Y-96525628D01*
X149857679Y-95896364D01*
X149036519Y-95555389D01*
X148147381Y-95554613D01*
X147325628Y-95894155D01*
X146696364Y-96522321D01*
X146355389Y-97343481D01*
X146354613Y-98232619D01*
X146694155Y-99054372D01*
X146709756Y-99070000D01*
X146315750Y-99070000D01*
X146157000Y-99228750D01*
X145903000Y-99228750D01*
X145744250Y-99070000D01*
X145542000Y-99070000D01*
X145542000Y-83260000D01*
X147025908Y-83260000D01*
X148087954Y-84322046D01*
X148087954Y-84322046D01*
G37*
X148087954Y-84322046D02*
X148318295Y-84475954D01*
X148590000Y-84530000D01*
X151060070Y-84530000D01*
X151338979Y-84585478D01*
X151516145Y-84703856D01*
X151634521Y-84881019D01*
X151690000Y-85159931D01*
X151690000Y-90043000D01*
X146685000Y-90043000D01*
X146635590Y-90053006D01*
X146593965Y-90081447D01*
X146566685Y-90123841D01*
X146558000Y-90170000D01*
X146558000Y-93980000D01*
X146568006Y-94029410D01*
X146596447Y-94071035D01*
X146638841Y-94098315D01*
X146685000Y-94107000D01*
X151690000Y-94107000D01*
X151690000Y-101473000D01*
X147160025Y-101473000D01*
X147318327Y-101314699D01*
X147415000Y-101081310D01*
X147415000Y-100615750D01*
X147256250Y-100457000D01*
X146157000Y-100457000D01*
X146157000Y-100477000D01*
X145903000Y-100477000D01*
X145903000Y-100457000D01*
X145883000Y-100457000D01*
X145883000Y-100203000D01*
X145903000Y-100203000D01*
X145903000Y-99228750D01*
X146157000Y-99228750D01*
X146157000Y-100203000D01*
X147256250Y-100203000D01*
X147415000Y-100044250D01*
X147415000Y-99722120D01*
X148143481Y-100024611D01*
X149032619Y-100025387D01*
X149854372Y-99685845D01*
X150483636Y-99057679D01*
X150824611Y-98236519D01*
X150825387Y-97347381D01*
X150485845Y-96525628D01*
X149857679Y-95896364D01*
X149036519Y-95555389D01*
X148147381Y-95554613D01*
X147325628Y-95894155D01*
X146696364Y-96522321D01*
X146355389Y-97343481D01*
X146354613Y-98232619D01*
X146694155Y-99054372D01*
X146709756Y-99070000D01*
X146315750Y-99070000D01*
X146157000Y-99228750D01*
X145903000Y-99228750D01*
X145744250Y-99070000D01*
X145542000Y-99070000D01*
X145542000Y-83260000D01*
X147025908Y-83260000D01*
X148087954Y-84322046D01*
G36*
X144018000Y-99070000D02*
X143815750Y-99070000D01*
X143657000Y-99228750D01*
X143657000Y-100203000D01*
X143677000Y-100203000D01*
X143677000Y-100457000D01*
X143657000Y-100457000D01*
X143657000Y-100477000D01*
X143403000Y-100477000D01*
X143403000Y-100457000D01*
X142303750Y-100457000D01*
X142145000Y-100615750D01*
X142145000Y-101081310D01*
X142241673Y-101314699D01*
X142399975Y-101473000D01*
X137870000Y-101473000D01*
X137870000Y-98232619D01*
X138734613Y-98232619D01*
X139074155Y-99054372D01*
X139702321Y-99683636D01*
X140523481Y-100024611D01*
X141412619Y-100025387D01*
X142145000Y-99722773D01*
X142145000Y-100044250D01*
X142303750Y-100203000D01*
X143403000Y-100203000D01*
X143403000Y-99228750D01*
X143244250Y-99070000D01*
X142851293Y-99070000D01*
X142863636Y-99057679D01*
X143204611Y-98236519D01*
X143205387Y-97347381D01*
X142865845Y-96525628D01*
X142237679Y-95896364D01*
X141416519Y-95555389D01*
X140527381Y-95554613D01*
X139705628Y-95894155D01*
X139076364Y-96522321D01*
X138735389Y-97343481D01*
X138734613Y-98232619D01*
X137870000Y-98232619D01*
X137870000Y-94107000D01*
X142875000Y-94107000D01*
X142924410Y-94096994D01*
X142966035Y-94068553D01*
X142993315Y-94026159D01*
X143002000Y-93980000D01*
X143002000Y-90170000D01*
X142991994Y-90120590D01*
X142963553Y-90078965D01*
X142921159Y-90051685D01*
X142875000Y-90043000D01*
X137870000Y-90043000D01*
X137870000Y-85159930D01*
X137925478Y-84881021D01*
X138043856Y-84703855D01*
X138221019Y-84585479D01*
X138499931Y-84530000D01*
X140970000Y-84530000D01*
X141241705Y-84475954D01*
X141472046Y-84322046D01*
X142534092Y-83260000D01*
X144018000Y-83260000D01*
X144018000Y-99070000D01*
X144018000Y-99070000D01*
G37*
X144018000Y-99070000D02*
X143815750Y-99070000D01*
X143657000Y-99228750D01*
X143657000Y-100203000D01*
X143677000Y-100203000D01*
X143677000Y-100457000D01*
X143657000Y-100457000D01*
X143657000Y-100477000D01*
X143403000Y-100477000D01*
X143403000Y-100457000D01*
X142303750Y-100457000D01*
X142145000Y-100615750D01*
X142145000Y-101081310D01*
X142241673Y-101314699D01*
X142399975Y-101473000D01*
X137870000Y-101473000D01*
X137870000Y-98232619D01*
X138734613Y-98232619D01*
X139074155Y-99054372D01*
X139702321Y-99683636D01*
X140523481Y-100024611D01*
X141412619Y-100025387D01*
X142145000Y-99722773D01*
X142145000Y-100044250D01*
X142303750Y-100203000D01*
X143403000Y-100203000D01*
X143403000Y-99228750D01*
X143244250Y-99070000D01*
X142851293Y-99070000D01*
X142863636Y-99057679D01*
X143204611Y-98236519D01*
X143205387Y-97347381D01*
X142865845Y-96525628D01*
X142237679Y-95896364D01*
X141416519Y-95555389D01*
X140527381Y-95554613D01*
X139705628Y-95894155D01*
X139076364Y-96522321D01*
X138735389Y-97343481D01*
X138734613Y-98232619D01*
X137870000Y-98232619D01*
X137870000Y-94107000D01*
X142875000Y-94107000D01*
X142924410Y-94096994D01*
X142966035Y-94068553D01*
X142993315Y-94026159D01*
X143002000Y-93980000D01*
X143002000Y-90170000D01*
X142991994Y-90120590D01*
X142963553Y-90078965D01*
X142921159Y-90051685D01*
X142875000Y-90043000D01*
X137870000Y-90043000D01*
X137870000Y-85159930D01*
X137925478Y-84881021D01*
X138043856Y-84703855D01*
X138221019Y-84585479D01*
X138499931Y-84530000D01*
X140970000Y-84530000D01*
X141241705Y-84475954D01*
X141472046Y-84322046D01*
X142534092Y-83260000D01*
X144018000Y-83260000D01*
X144018000Y-99070000D01*
M02*
