G04 #@! TF.FileFunction,Legend,Bot*
%FSLAX46Y46*%
G04 Gerber Fmt 4.6, Leading zero omitted, Abs format (unit mm)*
G04 Created by KiCad (PCBNEW 4.0.7) date 05/14/18 11:13:13*
%MOMM*%
%LPD*%
G01*
G04 APERTURE LIST*
%ADD10C,0.100000*%
%ADD11C,0.200000*%
%ADD12C,0.300000*%
%ADD13C,0.150000*%
G04 APERTURE END LIST*
D10*
X151193571Y-103738571D02*
X151050714Y-103786190D01*
X151003095Y-103833810D01*
X150955476Y-103929048D01*
X150955476Y-104071905D01*
X151003095Y-104167143D01*
X151050714Y-104214762D01*
X151145952Y-104262381D01*
X151526905Y-104262381D01*
X151526905Y-103262381D01*
X151193571Y-103262381D01*
X151098333Y-103310000D01*
X151050714Y-103357619D01*
X151003095Y-103452857D01*
X151003095Y-103548095D01*
X151050714Y-103643333D01*
X151098333Y-103690952D01*
X151193571Y-103738571D01*
X151526905Y-103738571D01*
X150098333Y-104262381D02*
X150098333Y-103738571D01*
X150145952Y-103643333D01*
X150241190Y-103595714D01*
X150431667Y-103595714D01*
X150526905Y-103643333D01*
X150098333Y-104214762D02*
X150193571Y-104262381D01*
X150431667Y-104262381D01*
X150526905Y-104214762D01*
X150574524Y-104119524D01*
X150574524Y-104024286D01*
X150526905Y-103929048D01*
X150431667Y-103881429D01*
X150193571Y-103881429D01*
X150098333Y-103833810D01*
X149622143Y-104262381D02*
X149622143Y-103595714D01*
X149622143Y-103786190D02*
X149574524Y-103690952D01*
X149526905Y-103643333D01*
X149431667Y-103595714D01*
X149336428Y-103595714D01*
X149003095Y-104262381D02*
X149003095Y-103262381D01*
X148907857Y-103881429D02*
X148622142Y-104262381D01*
X148622142Y-103595714D02*
X149003095Y-103976667D01*
X147812618Y-104214762D02*
X147907856Y-104262381D01*
X148098333Y-104262381D01*
X148193571Y-104214762D01*
X148241190Y-104119524D01*
X148241190Y-103738571D01*
X148193571Y-103643333D01*
X148098333Y-103595714D01*
X147907856Y-103595714D01*
X147812618Y-103643333D01*
X147764999Y-103738571D01*
X147764999Y-103833810D01*
X148241190Y-103929048D01*
X147336428Y-104262381D02*
X147336428Y-103595714D01*
X147336428Y-103786190D02*
X147288809Y-103690952D01*
X147241190Y-103643333D01*
X147145952Y-103595714D01*
X147050713Y-103595714D01*
X151574524Y-105814762D02*
X151431667Y-105862381D01*
X151193571Y-105862381D01*
X151098333Y-105814762D01*
X151050714Y-105767143D01*
X151003095Y-105671905D01*
X151003095Y-105576667D01*
X151050714Y-105481429D01*
X151098333Y-105433810D01*
X151193571Y-105386190D01*
X151384048Y-105338571D01*
X151479286Y-105290952D01*
X151526905Y-105243333D01*
X151574524Y-105148095D01*
X151574524Y-105052857D01*
X151526905Y-104957619D01*
X151479286Y-104910000D01*
X151384048Y-104862381D01*
X151145952Y-104862381D01*
X151003095Y-104910000D01*
X150145952Y-105195714D02*
X150145952Y-105862381D01*
X150574524Y-105195714D02*
X150574524Y-105719524D01*
X150526905Y-105814762D01*
X150431667Y-105862381D01*
X150288809Y-105862381D01*
X150193571Y-105814762D01*
X150145952Y-105767143D01*
X149669762Y-105195714D02*
X149669762Y-105862381D01*
X149669762Y-105290952D02*
X149622143Y-105243333D01*
X149526905Y-105195714D01*
X149384047Y-105195714D01*
X149288809Y-105243333D01*
X149241190Y-105338571D01*
X149241190Y-105862381D01*
X148336428Y-105862381D02*
X148336428Y-105338571D01*
X148384047Y-105243333D01*
X148479285Y-105195714D01*
X148669762Y-105195714D01*
X148765000Y-105243333D01*
X148336428Y-105814762D02*
X148431666Y-105862381D01*
X148669762Y-105862381D01*
X148765000Y-105814762D01*
X148812619Y-105719524D01*
X148812619Y-105624286D01*
X148765000Y-105529048D01*
X148669762Y-105481429D01*
X148431666Y-105481429D01*
X148336428Y-105433810D01*
X147860238Y-105862381D02*
X147860238Y-105195714D01*
X147860238Y-105290952D02*
X147812619Y-105243333D01*
X147717381Y-105195714D01*
X147574523Y-105195714D01*
X147479285Y-105243333D01*
X147431666Y-105338571D01*
X147431666Y-105862381D01*
X147431666Y-105338571D02*
X147384047Y-105243333D01*
X147288809Y-105195714D01*
X147145952Y-105195714D01*
X147050714Y-105243333D01*
X147003095Y-105338571D01*
X147003095Y-105862381D01*
X146526905Y-105862381D02*
X146526905Y-105195714D01*
X146526905Y-104862381D02*
X146574524Y-104910000D01*
X146526905Y-104957619D01*
X146479286Y-104910000D01*
X146526905Y-104862381D01*
X146526905Y-104957619D01*
X151193571Y-106938571D02*
X151050714Y-106986190D01*
X151003095Y-107033810D01*
X150955476Y-107129048D01*
X150955476Y-107271905D01*
X151003095Y-107367143D01*
X151050714Y-107414762D01*
X151145952Y-107462381D01*
X151526905Y-107462381D01*
X151526905Y-106462381D01*
X151193571Y-106462381D01*
X151098333Y-106510000D01*
X151050714Y-106557619D01*
X151003095Y-106652857D01*
X151003095Y-106748095D01*
X151050714Y-106843333D01*
X151098333Y-106890952D01*
X151193571Y-106938571D01*
X151526905Y-106938571D01*
X150145952Y-107414762D02*
X150241190Y-107462381D01*
X150431667Y-107462381D01*
X150526905Y-107414762D01*
X150574524Y-107319524D01*
X150574524Y-106938571D01*
X150526905Y-106843333D01*
X150431667Y-106795714D01*
X150241190Y-106795714D01*
X150145952Y-106843333D01*
X150098333Y-106938571D01*
X150098333Y-107033810D01*
X150574524Y-107129048D01*
X149669762Y-106795714D02*
X149669762Y-107462381D01*
X149669762Y-106890952D02*
X149622143Y-106843333D01*
X149526905Y-106795714D01*
X149384047Y-106795714D01*
X149288809Y-106843333D01*
X149241190Y-106938571D01*
X149241190Y-107462381D01*
X148907857Y-106795714D02*
X148526905Y-106795714D01*
X148765000Y-106462381D02*
X148765000Y-107319524D01*
X148717381Y-107414762D01*
X148622143Y-107462381D01*
X148526905Y-107462381D01*
X148193571Y-107462381D02*
X148193571Y-106795714D01*
X148193571Y-106462381D02*
X148241190Y-106510000D01*
X148193571Y-106557619D01*
X148145952Y-106510000D01*
X148193571Y-106462381D01*
X148193571Y-106557619D01*
X147717381Y-106795714D02*
X147717381Y-107462381D01*
X147717381Y-106890952D02*
X147669762Y-106843333D01*
X147574524Y-106795714D01*
X147431666Y-106795714D01*
X147336428Y-106843333D01*
X147288809Y-106938571D01*
X147288809Y-107462381D01*
X146431666Y-107414762D02*
X146526904Y-107462381D01*
X146717381Y-107462381D01*
X146812619Y-107414762D01*
X146860238Y-107319524D01*
X146860238Y-106938571D01*
X146812619Y-106843333D01*
X146717381Y-106795714D01*
X146526904Y-106795714D01*
X146431666Y-106843333D01*
X146384047Y-106938571D01*
X146384047Y-107033810D01*
X146860238Y-107129048D01*
D11*
X147922857Y-95067381D02*
X148494286Y-95067381D01*
X148208572Y-95067381D02*
X148208572Y-94067381D01*
X148303810Y-94210238D01*
X148399048Y-94305476D01*
X148494286Y-94353095D01*
X147303810Y-94067381D02*
X147208571Y-94067381D01*
X147113333Y-94115000D01*
X147065714Y-94162619D01*
X147018095Y-94257857D01*
X146970476Y-94448333D01*
X146970476Y-94686429D01*
X147018095Y-94876905D01*
X147065714Y-94972143D01*
X147113333Y-95019762D01*
X147208571Y-95067381D01*
X147303810Y-95067381D01*
X147399048Y-95019762D01*
X147446667Y-94972143D01*
X147494286Y-94876905D01*
X147541905Y-94686429D01*
X147541905Y-94448333D01*
X147494286Y-94257857D01*
X147446667Y-94162619D01*
X147399048Y-94115000D01*
X147303810Y-94067381D01*
X145827619Y-94019762D02*
X146684762Y-95305476D01*
X145303810Y-94067381D02*
X145208571Y-94067381D01*
X145113333Y-94115000D01*
X145065714Y-94162619D01*
X145018095Y-94257857D01*
X144970476Y-94448333D01*
X144970476Y-94686429D01*
X145018095Y-94876905D01*
X145065714Y-94972143D01*
X145113333Y-95019762D01*
X145208571Y-95067381D01*
X145303810Y-95067381D01*
X145399048Y-95019762D01*
X145446667Y-94972143D01*
X145494286Y-94876905D01*
X145541905Y-94686429D01*
X145541905Y-94448333D01*
X145494286Y-94257857D01*
X145446667Y-94162619D01*
X145399048Y-94115000D01*
X145303810Y-94067381D01*
X144065714Y-94067381D02*
X144541905Y-94067381D01*
X144589524Y-94543571D01*
X144541905Y-94495952D01*
X144446667Y-94448333D01*
X144208571Y-94448333D01*
X144113333Y-94495952D01*
X144065714Y-94543571D01*
X144018095Y-94638810D01*
X144018095Y-94876905D01*
X144065714Y-94972143D01*
X144113333Y-95019762D01*
X144208571Y-95067381D01*
X144446667Y-95067381D01*
X144541905Y-95019762D01*
X144589524Y-94972143D01*
X142875238Y-94019762D02*
X143732381Y-95305476D01*
X142018095Y-95067381D02*
X142589524Y-95067381D01*
X142303810Y-95067381D02*
X142303810Y-94067381D01*
X142399048Y-94210238D01*
X142494286Y-94305476D01*
X142589524Y-94353095D01*
X141446667Y-94495952D02*
X141541905Y-94448333D01*
X141589524Y-94400714D01*
X141637143Y-94305476D01*
X141637143Y-94257857D01*
X141589524Y-94162619D01*
X141541905Y-94115000D01*
X141446667Y-94067381D01*
X141256190Y-94067381D01*
X141160952Y-94115000D01*
X141113333Y-94162619D01*
X141065714Y-94257857D01*
X141065714Y-94305476D01*
X141113333Y-94400714D01*
X141160952Y-94448333D01*
X141256190Y-94495952D01*
X141446667Y-94495952D01*
X141541905Y-94543571D01*
X141589524Y-94591190D01*
X141637143Y-94686429D01*
X141637143Y-94876905D01*
X141589524Y-94972143D01*
X141541905Y-95019762D01*
X141446667Y-95067381D01*
X141256190Y-95067381D01*
X141160952Y-95019762D01*
X141113333Y-94972143D01*
X141065714Y-94876905D01*
X141065714Y-94686429D01*
X141113333Y-94591190D01*
X141160952Y-94543571D01*
X141256190Y-94495952D01*
D12*
X148458571Y-91253571D02*
X148458571Y-92467857D01*
X148387143Y-92610714D01*
X148315714Y-92682143D01*
X148172857Y-92753571D01*
X147887143Y-92753571D01*
X147744285Y-92682143D01*
X147672857Y-92610714D01*
X147601428Y-92467857D01*
X147601428Y-91253571D01*
X147101428Y-91253571D02*
X146601428Y-92753571D01*
X146101428Y-91253571D01*
X143744285Y-92753571D02*
X144458571Y-92753571D01*
X144458571Y-91253571D01*
X143244285Y-91967857D02*
X142744285Y-91967857D01*
X142529999Y-92753571D02*
X143244285Y-92753571D01*
X143244285Y-91253571D01*
X142529999Y-91253571D01*
X141887142Y-92753571D02*
X141887142Y-91253571D01*
X141529999Y-91253571D01*
X141315714Y-91325000D01*
X141172856Y-91467857D01*
X141101428Y-91610714D01*
X141029999Y-91896429D01*
X141029999Y-92110714D01*
X141101428Y-92396429D01*
X141172856Y-92539286D01*
X141315714Y-92682143D01*
X141529999Y-92753571D01*
X141887142Y-92753571D01*
D13*
X142240000Y-86995000D02*
X147320000Y-86995000D01*
X147320000Y-86995000D02*
X147320000Y-83185000D01*
X147320000Y-83185000D02*
X142240000Y-83185000D01*
X142240000Y-83185000D02*
X142240000Y-86995000D01*
X145518095Y-88717381D02*
X145518095Y-87717381D01*
X145280000Y-87717381D01*
X145137142Y-87765000D01*
X145041904Y-87860238D01*
X144994285Y-87955476D01*
X144946666Y-88145952D01*
X144946666Y-88288810D01*
X144994285Y-88479286D01*
X145041904Y-88574524D01*
X145137142Y-88669762D01*
X145280000Y-88717381D01*
X145518095Y-88717381D01*
X143994285Y-88717381D02*
X144565714Y-88717381D01*
X144280000Y-88717381D02*
X144280000Y-87717381D01*
X144375238Y-87860238D01*
X144470476Y-87955476D01*
X144565714Y-88003095D01*
M02*
