G04 #@! TF.FileFunction,Copper,L2,Bot,Signal*
%FSLAX46Y46*%
G04 Gerber Fmt 4.6, Leading zero omitted, Abs format (unit mm)*
G04 Created by KiCad (PCBNEW 4.0.7) date 05/14/18 11:13:13*
%MOMM*%
%LPD*%
G01*
G04 APERTURE LIST*
%ADD10C,0.100000*%
%ADD11R,1.750000X3.500000*%
%ADD12R,1.700000X1.700000*%
%ADD13O,1.700000X1.700000*%
%ADD14C,1.500000*%
%ADD15C,0.254000*%
G04 APERTURE END LIST*
D10*
D11*
X143510000Y-85090000D03*
X146050000Y-85090000D03*
D12*
X143510000Y-104140000D03*
D13*
X146050000Y-104140000D03*
D14*
X143510000Y-85090000D03*
X146050000Y-85090000D03*
D15*
G36*
X148087954Y-84322046D02*
X148318295Y-84475954D01*
X148590000Y-84530000D01*
X151060070Y-84530000D01*
X151338979Y-84585478D01*
X151516145Y-84703856D01*
X151634521Y-84881019D01*
X151690000Y-85159931D01*
X151690000Y-101473000D01*
X145542000Y-101473000D01*
X145542000Y-98232619D01*
X146354613Y-98232619D01*
X146694155Y-99054372D01*
X147322321Y-99683636D01*
X148143481Y-100024611D01*
X149032619Y-100025387D01*
X149854372Y-99685845D01*
X150483636Y-99057679D01*
X150824611Y-98236519D01*
X150825387Y-97347381D01*
X150485845Y-96525628D01*
X149857679Y-95896364D01*
X149036519Y-95555389D01*
X148147381Y-95554613D01*
X147325628Y-95894155D01*
X146696364Y-96522321D01*
X146355389Y-97343481D01*
X146354613Y-98232619D01*
X145542000Y-98232619D01*
X145542000Y-87475000D01*
X145764250Y-87475000D01*
X145923000Y-87316250D01*
X145923000Y-85217000D01*
X146177000Y-85217000D01*
X146177000Y-87316250D01*
X146335750Y-87475000D01*
X147051309Y-87475000D01*
X147284698Y-87378327D01*
X147463327Y-87199699D01*
X147560000Y-86966310D01*
X147560000Y-85375750D01*
X147401250Y-85217000D01*
X146177000Y-85217000D01*
X145923000Y-85217000D01*
X145903000Y-85217000D01*
X145903000Y-84963000D01*
X145923000Y-84963000D01*
X145923000Y-84943000D01*
X146177000Y-84943000D01*
X146177000Y-84963000D01*
X147401250Y-84963000D01*
X147560000Y-84804250D01*
X147560000Y-83794092D01*
X148087954Y-84322046D01*
X148087954Y-84322046D01*
G37*
X148087954Y-84322046D02*
X148318295Y-84475954D01*
X148590000Y-84530000D01*
X151060070Y-84530000D01*
X151338979Y-84585478D01*
X151516145Y-84703856D01*
X151634521Y-84881019D01*
X151690000Y-85159931D01*
X151690000Y-101473000D01*
X145542000Y-101473000D01*
X145542000Y-98232619D01*
X146354613Y-98232619D01*
X146694155Y-99054372D01*
X147322321Y-99683636D01*
X148143481Y-100024611D01*
X149032619Y-100025387D01*
X149854372Y-99685845D01*
X150483636Y-99057679D01*
X150824611Y-98236519D01*
X150825387Y-97347381D01*
X150485845Y-96525628D01*
X149857679Y-95896364D01*
X149036519Y-95555389D01*
X148147381Y-95554613D01*
X147325628Y-95894155D01*
X146696364Y-96522321D01*
X146355389Y-97343481D01*
X146354613Y-98232619D01*
X145542000Y-98232619D01*
X145542000Y-87475000D01*
X145764250Y-87475000D01*
X145923000Y-87316250D01*
X145923000Y-85217000D01*
X146177000Y-85217000D01*
X146177000Y-87316250D01*
X146335750Y-87475000D01*
X147051309Y-87475000D01*
X147284698Y-87378327D01*
X147463327Y-87199699D01*
X147560000Y-86966310D01*
X147560000Y-85375750D01*
X147401250Y-85217000D01*
X146177000Y-85217000D01*
X145923000Y-85217000D01*
X145903000Y-85217000D01*
X145903000Y-84963000D01*
X145923000Y-84963000D01*
X145923000Y-84943000D01*
X146177000Y-84943000D01*
X146177000Y-84963000D01*
X147401250Y-84963000D01*
X147560000Y-84804250D01*
X147560000Y-83794092D01*
X148087954Y-84322046D01*
G36*
X142000000Y-84804250D02*
X142158750Y-84963000D01*
X143383000Y-84963000D01*
X143383000Y-84943000D01*
X143637000Y-84943000D01*
X143637000Y-84963000D01*
X143657000Y-84963000D01*
X143657000Y-85217000D01*
X143637000Y-85217000D01*
X143637000Y-87316250D01*
X143795750Y-87475000D01*
X144018000Y-87475000D01*
X144018000Y-101473000D01*
X137870000Y-101473000D01*
X137870000Y-98232619D01*
X138734613Y-98232619D01*
X139074155Y-99054372D01*
X139702321Y-99683636D01*
X140523481Y-100024611D01*
X141412619Y-100025387D01*
X142234372Y-99685845D01*
X142863636Y-99057679D01*
X143204611Y-98236519D01*
X143205387Y-97347381D01*
X142865845Y-96525628D01*
X142237679Y-95896364D01*
X141416519Y-95555389D01*
X140527381Y-95554613D01*
X139705628Y-95894155D01*
X139076364Y-96522321D01*
X138735389Y-97343481D01*
X138734613Y-98232619D01*
X137870000Y-98232619D01*
X137870000Y-85375750D01*
X142000000Y-85375750D01*
X142000000Y-86966310D01*
X142096673Y-87199699D01*
X142275302Y-87378327D01*
X142508691Y-87475000D01*
X143224250Y-87475000D01*
X143383000Y-87316250D01*
X143383000Y-85217000D01*
X142158750Y-85217000D01*
X142000000Y-85375750D01*
X137870000Y-85375750D01*
X137870000Y-85159930D01*
X137925478Y-84881021D01*
X138043856Y-84703855D01*
X138221019Y-84585479D01*
X138499931Y-84530000D01*
X140970000Y-84530000D01*
X141241705Y-84475954D01*
X141472046Y-84322046D01*
X142000000Y-83794092D01*
X142000000Y-84804250D01*
X142000000Y-84804250D01*
G37*
X142000000Y-84804250D02*
X142158750Y-84963000D01*
X143383000Y-84963000D01*
X143383000Y-84943000D01*
X143637000Y-84943000D01*
X143637000Y-84963000D01*
X143657000Y-84963000D01*
X143657000Y-85217000D01*
X143637000Y-85217000D01*
X143637000Y-87316250D01*
X143795750Y-87475000D01*
X144018000Y-87475000D01*
X144018000Y-101473000D01*
X137870000Y-101473000D01*
X137870000Y-98232619D01*
X138734613Y-98232619D01*
X139074155Y-99054372D01*
X139702321Y-99683636D01*
X140523481Y-100024611D01*
X141412619Y-100025387D01*
X142234372Y-99685845D01*
X142863636Y-99057679D01*
X143204611Y-98236519D01*
X143205387Y-97347381D01*
X142865845Y-96525628D01*
X142237679Y-95896364D01*
X141416519Y-95555389D01*
X140527381Y-95554613D01*
X139705628Y-95894155D01*
X139076364Y-96522321D01*
X138735389Y-97343481D01*
X138734613Y-98232619D01*
X137870000Y-98232619D01*
X137870000Y-85375750D01*
X142000000Y-85375750D01*
X142000000Y-86966310D01*
X142096673Y-87199699D01*
X142275302Y-87378327D01*
X142508691Y-87475000D01*
X143224250Y-87475000D01*
X143383000Y-87316250D01*
X143383000Y-85217000D01*
X142158750Y-85217000D01*
X142000000Y-85375750D01*
X137870000Y-85375750D01*
X137870000Y-85159930D01*
X137925478Y-84881021D01*
X138043856Y-84703855D01*
X138221019Y-84585479D01*
X138499931Y-84530000D01*
X140970000Y-84530000D01*
X141241705Y-84475954D01*
X141472046Y-84322046D01*
X142000000Y-83794092D01*
X142000000Y-84804250D01*
M02*
